<mxfile host="65bd71144e">
    <diagram id="dI05j9apr1Lnm07vnKOA" name="Page-1">
        <mxGraphModel dx="1136" dy="614" grid="1" gridSize="10" guides="1" tooltips="1" connect="1" arrows="1" fold="1" page="1" pageScale="1" pageWidth="827" pageHeight="1169" math="0" shadow="0">
            <root>
                <mxCell id="0"/>
                <mxCell id="1" parent="0"/>
                <mxCell id="2" value="" style="shape=image;verticalLabelPosition=bottom;labelBackgroundColor=default;verticalAlign=top;aspect=fixed;imageAspect=0;image=data:image/png,iVBORw0KGgoAAAANSUhEUgAAAlsAAAJKCAYAAAAbT4BPAAABF2lDQ1BJQ0MgUHJvZmlsZQAAKJFjYGBSSCwoyGESYGDIzSspCnJ3UoiIjFJgv8/AyiDHwM3Aw8CYmFxc4BgQ4MOAE3y7xsAIoi/rgszCrQ4r4EpJLU4G0n+AODu5oKiEgYExA8hWLi8pALF7gGyRpGwwewGIXQR0IJC9BcROh7BPgNVA2HfAakKCnIHsD0A2XxKYzQSyiy8dwhYAsaH2goCgY0p+UqoCyPcahpaWFpok+oEgKEmtKAHRzvkFlUWZ6RklCo7AkEpV8MxL1tNRMDIwNGVgAIU7RPXnQHB4MoqdQYghAEJsjgQDg/9SBgaWPwgxk14GhgU6DAz8UxFiaoYMDAL6DAz75iSXFpVBjWFkMmZgIMQHAIy3SQOUKlKyAAAACXBIWXMAABM5AAATOQGPwlYBAABAAElEQVR4AeydD1yUVb7/PxaYYGNiQbtaiUEtDLuwd6WSNm1YtTR7QVupBdaWK67sbgKbvQy2lYvdBK/bTdjuYqsLW4Hd0m0vky7dwivBFnSF/Tns8mcVEipoAwNlFMyZen7f8zwzwwzMDIPAMAPfw2uY53nOv+95f89znu+cc55zpknkwI4JMAEmwASYABNgAkxgXAhcNi6pcqJMgAkwASbABJgAE2ACMgE2trgiMAEmwASYABNgAkxgHAmwsTWOcDlpJsAEmAATYAJMgAmwscV1gAkwASbABJgAE2AC40iAja1xhMtJMwEmwASYABNgAkyAjS2uA0yACTABJsAEmAATGEcCbGyNI1xOmgkwASbABJgAE2ACPuOFoLm5Gc8//zwMBsN4ZeE16YqlzOrr6/Hkk09i9erVXiM3C8oEmAATYAJMgAmMnsC4GFsnT56ERqPBddddh5tvvnn0UnpxCmfPnkVpaSmMRiP+8pe/sLHlxbpk0ZkAE2ACTIAJXAqBMTe2hKEVGxuL733ve/jjH/+I6dOnX4pckyLOhx9+iOXLl+Ob3/wmRO/W9ddfPynKxYVgAkyACTABJsAEXCcwpnO2zIbWv/zLv0x5Q2vfvn1YsmQJIiMj8f/+3//DN77xDde1wiGZABNgAkyACTCBSUNgzIwtNrQG6kRycjJ+8pOf4JFHHsHRo0dx9dVXD3jyERNgAkyACTABJjClCIzJMCIbWkqd+frrr3HHHXeguroaL7zwAlJSUqZUZeLCMgEmwASYABNgAkMJjNrYqqysxH333YfLLrtM/n7jjTeG5jIFrly8eBG/+tWvcObMGfz5z3/GihUrxqzUNTU1aGpqGrP0OKGJJXD33XcjMDDQoRCHDx9GT0+PQ3/28B4CYs7qAw88gMsvv9yu0BcuXMCf/vQnfPXVV3b9+aJ3ERDzc5cuXepQ6E8++QTvvfeeQ3/28C4CYspURESES0KP2tjKycnBuXPn5MbkiSeecCnTyRhINJbi87e//Q3h4eFjWsSf/exn+Mc//gGVSjWm6XJi7ifw+eefIzs7W14GxF7u/f39uPfeexEUFDSlXy6xx8bbromXYtrb2yF+LC1cuNCu+GKaQWJiIubNm2fXny96DwFhOIuPXq93KPSLL76IvLw8XHPNNQ7DsId3EBArDdx555146623XBJ41MaWWq3GtGnTcOjQIZcynKyBRG/EmjVrxtzQErzE8OQzzzyDLVu2TFZ8U6Zct9xyi/xmqqMCC10LJ+pTdHS0o2B83QsInD9/HldeeeWw+vb394fo8WDn3QTEPbt27VqnhRD3t+j5murPS6eQvMTzqaeeQmNjo8vSjtkEeZdz5IBMgAkwASbABJgAE5hCBNjYmkLK5qIyASbABJgAE2AC7ifAxpb7mXOOTIAJMAEmwASYwBQiwMbWFFI2F5UJMAEmwASYABNwPwE2ttzPfFLmqO9oQUuH47dwJmWhp2yh9Gipa0KH3jhlCUypght70NLUAdb2FNE663tcFM3G1rhgnXqJntgXitB99eNfcGMH8mKnYWc1r0M1/rAd5KCvR1xUOPbVj79xbezQ0l6reWBtO9CFGy7rda8iNHw5asZd3UZU70lEfF6tG0rFWTgi4DZ9T7G2nI0tRzWOr4+MwGwN1LP9RxbnUkIbTuNP5YCf/4xLic1xxoKAjy+CKJ0gN+jAcLoV5eUAa3ssFHeJafhOp4ih8Pe7xPguRzPg+G/2oxm+LsfggONAwF36nmJtORtb41BXvSPJHtRW18o9Bl1NtWjq6jeJ3QPtzkR57TSxflp8WiHayKu/qZhWyt2OFvNYQn8dNkZsRJ3p167v9FloOPJfSIufJseNSNyOOkt3hP00W7QZmBa/Ex0WYD0oTIxA2sEmGLuqkREfYZIjAtuLa2kYQ4/iDVEop/ApUf4olDPvR3UhpUOyik9s2h5ZXpFkf8tBxMdnYM92c3kScZDKXJhmSjc2DZVy4bqIBeVJcdpqq9HSYy6kSGVyOGNXC2qbuqgwetQRgy5TEe1zHl7fsyilUuIea+K+Me8IzDUIVKuG1KELpLuNEUjcY9Vr0XUE8dMSUUlitbydZ0lrWuxGaJt65DoXHZVCOaXAPyJDqXv6JuRtjLXoW6kXio5Y3woH8d+Rvu1xFuGbCjcisbBOHMquqTgNERuLqbaYnRYpP4o3cY9HYfXAXWu/DjnW919O26kfVHmaCjcguQFoSImyyNJVexCJpjo2jdobUS/MTsgYu3E7tROmNmdjHqprtZbw8RnFkGt8Wx1qW0Q80eY1WZXJnJL3f3fU1VK7JYrYQgzaTAWyzxnUdqdFxKK4yazdfhxMi0WGtsUKhGN9261DPdXEPRYHLWnSPU3te0RiMc45ag+GtOWAY33rScZ4pG0faHMyCo+g+uB2U52MwE6t2GXFiBZqw9uoaMauJlObZ1WsiTykVY5H5WihTWnVqlWjSmMyRKZF6iRanNBhUWiBSmnXrl0O/Z15jCauo3SrctQS1PlSa3OJRPVPKmruk4O2l6bTuUYqbWyX2nUlkob8kFsj9ery5etVvaYU+2rITyOZz3X5CXI6SfllUnNjhZSqpniafKmbgjtK09Cu5J2vUxI1tCrnB1t7paI4ip9QIDV3dkpVRaly2gUkY3tVgaQmmeJySqX2XoOkKxD5qqX8Mp3U3lwhpYt84wokkaIiszjPlWoaq6QckaYct0TSVZVICXSszqmRJEOjfJxa2izV5AsuubLcppKO6ddwuqTdGGQZjx07Nob5tkrpVNaEA43EK47ST5fa5dT7HHJ2qm/SvWAn6klRFaVZmivLnHSgWU7Vkb4bZV2lSs0GpWiKLFlSZ3eFrNP0Ep3U2dko5SeItNOlTtJiVYHQfapUVtMo9Rg7pVy5XqVLFc2tlnxTS5R8PU3fruhStBszZ84cQ12LpBzo2yFnSarJVSv3gkkSXb5Gvg9s7iNNjlTT2iyVZIk6pJbKOkVgx3XIkb51DtoYQ2eNfP+qUwskXXuvZG4P4nJKpNb2ZumAnK9GqhCNCjldvpADkmhzdFVFUpxcJyHlHCiVSgpEOwZJtC3dNaJ+qqUKSiOLrsUVNCoJjPF/V3Q5Hs/LvsYiuaxl7a1SLpVPnVsll8zRfSjJbTek3BoTSLrP8jWmtpBiWu4je/p2WIdM92ZWhYlqp5RDsmjyqV12oO/BbblzffdKBSSj0OmBKp1Ulp8kH0NNbYOuRipIpXab2oxWyr0sncLFFUmtJi6l7aYGxyTZWH2NVJdideNRuZFmOKrMPDiyNxlbvboCuaKWNDbKDy91jnJzCrxKAykarAqptZsaKrqBO8moMT98axwaW6JxzqemV3F9VsaZozTptlZuoPQyOVJNrtLA95iv041USg/z7t5uMgrbJRKDDCOd3Kjm60ROSiOB1BKpu49k7e2TmkuzqGyKEajITI2sqU1pLRE3aJKkPJpFY035aRTDrLsqR45X1qyTDZO4fDLCxsFNhLFVkaUYkI2NB2S9FzSalWjib4ezU31TYy0ebOmliskmMJl1J1J2qO/uMtmoypUrUaf84Esoogdfp3I9IadIqmkmE6u7nR6unZJQd59OPChz5XplfqjkVLRKfVQnevs6pQNJ1LCajGNP0/dEGVsO9e2Es9Cf/MNDKJOcYmzl0x1mfvgO/LASxlyqRf+O65DkQN8O6wdpWTxQNbk6kwzCmEqSajrp3u4mfXdWyUa+2ahXjK1cWUZh9Im46ixzW9Yp38c5skFhkEpTqZ7QA7i5Rmn7Dph+XMoZjdG/CTG2DM2yLuIKaqQa+ceMYnCIIjnk7MDY0tCPauHM9775h7SNvp3UodYDSvsqm7LNigEoDB2Hcti05Wbj2ZG+qa2nH1qpJaY2p08ndwTkys8B8XvZqjOA/MSPwVT68VaRI54pOaYfl3LxxuzfSG0fHkYkU3lquTZkR62nHwGlCD7xElIa1NizcZEFQdgju1CQHoenVy9B8JxZmLM8A++cGOi6twQcdGC4SL8df3ILzNM6/BZ8Fxoa8Pu0sx+O01Th7q3U55L9Olr6O3A4pRxJ2fGYDRUe3FeKpKDdWBkTjjmz5uCxnQfRaaBMDQb00tdFwwUa6zqBynI62R2POf4k6yx/hK7MpAtzrWZ9BMHftClVUPC3Schvy/ONKJDiOr+UvwMWbUQWybtsZyseKk2HNvlRVJt72c1hvfDb2FKMJZkNSH9eg78/uxpIKMIjYeY9Np1wdqGsM2aatQ3I0zwwXY7lUN8BtyODWsGUPx6Hvu0dZEKNTfeEAYFL8dqBHBx/eh2iQ4Mwa8487KYhAaFu02in/G28qCjk6SXB8Kc6Mcs/CKv3UqBQFQb2HWN9O9S3E87Dq3uW5T6i2XqI1AAluo8pmpM65EDfDusHaVm5G4XmhbuSPnsRHUT39hzSd1AM9tOVzzvOCE9qBKglSAo2tTlK3KDZ5vleM3ADdYErzgcrMkoB7ToUn4lEAf1SWL3h5UkxnFi37xfYjQRsWdiFR9fvR3rZzzHfVGrHnIFZZjQOvx3o20kdmn/3emrz9+Idmj9Sd3gf/eYtwPfn+jhu/63bclkO5/qmRwy+Mc/cdhmUMojnALl+4UlO1r5fJLYXJdBjYSf849NoXPppPFUshhgn1l02sdlz7u4nMB8/IWMC2fk4G7EWSWjAq0cGKmJP+2lE/vgPkAy9aNZVICd0P9Y9+hrOQNTmWfA1P9U6T5FpMuBEJW/4e7vlgrG9kfw1uC7ID47SFCbc3DsfQhzdoC/u2kUPXw3Wx4qmQo/2rtn4pdYAQzdt5FtaQG1uCjbstZrvIwTxuwGR1KBq8mvk/eeoJ4TCN6Os7Be4ccAOGJBJHNGcEHuuv+UI5Q8U/SQYH+zMJmP0eUSZ72t7Ebzkmk9IHKjdQfabf8O3n6BBhv07UNZhNmGccXaub1H82WYrVpzIjd1F2ShyrG8/3LWJBnKyf40Xdu8gwy8D0QFkUOnb0HddPOh3NbpbG1GSm4TdyUvwnphwI5x6upUxBRxoNcj6pp+o6GysQFn6EouRr0RQ/sulZH1b9D0c54YvzUaONUXzca9s/CpnPThZDnz3utl06qwO2de3o/phMqGA6YrBZLjYQelngUYrqT2ij9SHxqoybFt1oyyGkFYdMs+mbsgepn9ylTQd176WT0dZuG9eO36tBXKyHyAz0ftd5ANbqNXcj9KOuXhe3Fr/ppXn4YqSOeIspqSKH6wDjTkdd4oL1s6+vp3WIVU00pLox9SLu7CTfjinb71bZuxQDnN2pofKcPpWgpvbLlMZzGnYfHegeN1+aHI3AbViz+YkbI2jH3UT7C6b4Pw5+wkgMH/Fr3AgSYslL57BL2tysXf1A/IkZSHKR//1MPUu/ByV7UbMV4chRG7XpmPGzKvJV4v/frcOPTQJc08G9ZII40tEEo4myGNvPPIq29Df04TfPrueWsIfIoRaNEdpynYb/QrZnKXG7szdNDUnDdFyC9iNl2JiEPzk6+icEQR1ZCj1VZFhdjU17qZ77VRtPTXzgbh9rRrlyduhreuAgR7ar24NxbJl2/G5LJSr/7qQF7qajLYqLOoqRHJ5Epq3r7D7AHc1Rc8Jp6JJ6TXQ7F2HEqwiw6QBKxNfNf2qd8zZx5m+TTpIid6G2i49uuoO4mFqXBO2aEC2k1N9B8asQSrVo8zdDcjZdJfM2ND+v4ihHsxd1Js1Y34oIm6+jlJRY6aoIOKJ2lCJ92jSr496OcWlXomMfWjq6ae5wEewIXwJlhWMdMmRqalvZ5x9VXT/ZmbjSEsXuppocnRyuejAsnLl2L7rbfT06+mFlH8F/RzBI7Gh9N9xHRKR7enbUXtwuYhArvyvH9Bk737crFlLZ5nYUVwNvYFe7NA+i/CYZThsfrtDDj38P2ObFtEpWhQ1/gh/2xqPhvQybF0UOHxEbwgRuBjFZVnIXrkTgRt0SCpPxlbTRHdHnH1VN+KH9CM15UUt2nropYHibfKLCba9Xfb17awOgcze2J/QD7q92WT+JeChO0Wr7bg98LVpyzFm+q4rTKZak4V9D17Eo+v2Ir9mJyI9wbIe7QDmSMctR5ufp8b3pjlbMsO+Zqko/wBNQjZINQcKpLJm0zye3kYpyzSRnO4TCYiTSmW/PtPEWHGN5lUkiPkUcZJ5Dpcyf4LmfchxKAzNA6rqNE1MdJimos2+RmUexcCETZrGU1OkTM43padOKiBZhes0TaAWE75p9pWhnSZH0ri8OV+SqUinTNJS5h4MyNgr5v/Q/B7zjCVZZprE30vyFeWXKCyK8gdYKOKN6f+JmLMlCtBNLzsU0AsANOuYykqTR02T6xxzdqJv0zyRAeZUH9IPDLxUMIy+5QmsNBen0VQ9xHybslzThFeTHtOLauQ5W4b2MtPEZ7X8MkZfc6lpcr5SD5GQIzWayuJp+p6oOVuO9e2YM80iV15qkfmrpVRxT4l7gxIzz+FJsmoXcstaRTayc1yHFP8h+nZSP1pLlInt5vtUd0DMwTTpmr5T8yvkeiFS1tnMM1Pmb5rnHcnzOWmOj5iz1V51QKn7NHNHtHmtlnqnyDdW/ydkzpYsfB+9RFRALwAYJHF/5B8wzTd1wrm9QnmpRWZLbXVWkprmytnO2bKvbyd1SJalVZ6LSdNUBrA6lGNQW04xHOtbmbOlzMGjgKZ5o+ZnhuXe1wsW1IZTA9fbWCoV0Lyt8XIjtX1Ed/yo3EgzHFVmHhzZ64ytYVgaaMJ5by+9ETQonIGuiYnoDp1BTGYdGk+Ed5Sm8rYKvaU2JFGamC8mxvYNloLutb4+G9n6hFwO8h2S7ARemChjy3mRHXMeTt/yRHX5zYWhOdjXt+ntNctbS1bxxEsOpMOh6qaHiM1Fk7zO6qFVshN1OJHGltMyO+HcK7944Ci2wt1GFZagjuqQY33brx/UThjo3ra+5elcniDvpNmxiDGBBxNnbDkvtCPO1CAP02Y60bejOtRdJf9INr9hbi2ZIzkGt+WKXKLdt47teccjtX3kkRyybtkxARsCPn4qu3MafFQqeajIJrD1iQ/5i7EkO25Imv1NSIsOB40o0SoPjQgZEscHKgeJ+fnZTsryI7lsrwxJjC84JOCY83D69lM5UDblNVjfelqrbVH4OnnaXEl+zFBpqM4F2FWiD2zV7VjeoYnylSEEnHBWOdGnGCZydD/a8xtO34Prh1lOH59BlYDOA+xXDHMU/nZCwBFnukEdttVKck70PaQO9UObcQ/is8tpBkAu3rQzbudIjsFtuSLXoDrgpHze4sXGlrdoajLK6TsLsU/k4FvX3InEByd+AuNkROxJZfK7OgxP5ORi7rIHEUdvKbGb3ARY35Nbv7al80PUyg3I+cYGxD+y1vkPctuIU+aMW7wpo2oPLKjPXMRt2uqBgrFI40HAJ3AhNm1dOB5Jc5oeSID17YFKGUeR5i9OxNbF45iBlyfNbyN6uQJZfCbABJgAE2ACTMCzCbCx5dn6YemYABNgAkyACTABLyfAxpaXK5DFZwJMgAkwASbABDybABtbnq0flo4JMAEmwASYABPwcgJsbHm5All8JsAEmAATYAJMwLMJsLHl2fph6ZgAE2ACTIAJMAEvJ8BLP3i5Ai3i93eh6eQXmLUgDHNt9oHSo6XuFPwWqOl6P1qa2q02lPWF39VBmB9oE8GS5Fgf6Dta0G6YhbD59vYlIzkHyeZLK1kGzZsL1XjXUj2xO9WLeeqQkeWl7wCJjNAwFdroYNb8MAR621p8VG/qdE3oOHMeMwOD8e2oMAS4yFvos5M20AuxrXBDqo2r4YZEvOQLSl3ySn1ccpnHMqIRXS3N+MLevtS+VyM0JNDh5s8uSXGp95tLiXMguwQE8/Yv7HrNmkd7z9ppZMWm07oTtEeleh7aG07hanWkTfvW01KLD092IfCm27AwZAaaqj9A65npuOm2GIS42ojYlWhyXuSerUmj18/wbFQ45i3aiS6rMlVuX4TQqCg0XqCL+nrauDcc4ZZPKIKDZiEiQ2vamNgq4jgcnng1FOHBBZZd6W2ysCNbaPA8zPKNhbZFbxPUpRNjB/Jip2Fndc+wwfUnChAeFYr6/mGD2gTQn3iVWC5HzWf1iCOm+brh87JJYIJP9E0HEeEfhKiYJVi5ciWW0Gr+c3zjcaTDtEPsMPLVvxiK0F3HhwkFnNhH4faNdLPoYZN1HIDqkjfqw3GB3O3Tj9firNsJq+PQglG3FfoT+fL9dnyE95u7KUym/PQnXrNq9630Se3WQTKo7Ln++pcRHf0ATvTUIzw6Ci9YtW9ic+85odFyu7Hl8EdoKk6RNwlfuXIJ3v3Ifnr28phK19jYmiza9ovEvsYioOFpbMirlkvVcWQ7lmQ2IKeiE0sDqbvCxxdiZ/esslbQ/mPo6+uFriQHDdnxKK67BINmhOxmBsXRVg5X2f9VbJatgnreZNn60N1ehXR1OeI3FI+8gTecxp/KAT//GcNL6XsVhdHAd/iQtiHkeEHw9fVFKPnMHnECtsm590yPg8mr0RCXj/Y+SeyRCkO3DunQYlny63CluYxKa0VrRvTwYs/WQH2FG+FQXfI+fQyP0Z0hpgfRrZpTgT6DgdoJ0VYo7UVv35OjXh1cFZWG1tZOxLinQ92d2Dw3L/n2y6GRBWt99qG3tw+bF9pXhGrRU+js/Aui5kahs70T6dEDW3MZznZQWeOgM0g4unkhLn5xEkivkNuRTQ7S81w47pGMjS33cHZLLn5hidAVJECbEoM8bTGSl2VCQw3m1sUDw3a9JEnQvCCI/cf8aH+ryHtWkpkBnO0b6M1oqyxEfMQ0TJtGn4iN0NYN9JXpW44gLT5C8SP/+LRCtJmi9rccRHx8GjI2xsr+f6Dhy4PbE03pxCN5vZYyd4xCyDbbX2WSjfbtmrsIP95CBlrnRYgsmorTEJuYZpItDX//uBY7E5W8hKwZxdUmI0GP4g1RKKc4KVH+KJQNST3ezkuzyB2btgdDOszIHoWxDXmUZkTiHojmxNjlKA/ytHJCdu9yRug7SeKIYMt+hD4Bkfh5RQGy7rtBLoqizwzkZZh0OC0ehZWCiuLa3tmN5w5RI0uuq/YgEkV9MdeZpqG9fIPrh9CLs3j9bZVIizWlGa/IkVbcpGQ+TJ5mfch5Jm5HYd5Gk+4jsF07kIYlMT4YQiDoqqvg5yP2pRRthdJeqPzETQIMz7Vr4N6fFouM7RsRu1H50dTf/D947J4daKDfd+Kejs/Yie2JJj3HbsSRtgFT31n9GCIwX3BOgH7oBtjo0w8qlWneQ38dMmIjEJ8YL98nYrSjpfpNpGrmwHeaP4ISf4mjDcpzoJ/2OI2OSqa8mhHlG4Fnn30cUSnlQPYSajcL6Ycx/ZBLi8fG7RmINbUJ8RnFlhGXpsKNSCyss8gq6kCEuW6IZ4jT+9VxvbIk6KEHbGx5qGIuVazIx18E2VtIiV8HLfVavDFo/wTRs/X6Ky/j4MGDKC7cg7TlwijJwkOLlF8t4kYKXrIeWHsAza2NKIo/ifioILwthpaMTdgUugy7r30CutZW6MoK0Lx7PTL+u0UW13j+NLTa3cj+PBb5ubkwvr4eqzM7UFTVCN3zS2XjR+5ac1A4IVt/n+hhM8JoJGOgoxq//7UW+O5ciP6pi/qPUL5/N658NB+5ud9BwfxoPH08BhWNraihHrrsdTHYID+MVbTnYgHUFCcupxR3L/BDdV4cVqa8g/xSHZp1pbhpdzJC4/KshjTnwvdCB/YsD0bK/pvwyoubMBdt2BbkKA9K3KtdAO7KSKUGciX86WGYtj0P2iO18I15HNseXyxv6q3oMxsp9ZHQtbeiNOdKrF+yHEdMtvf5L97B+50Gsk+1CIpejXM5JWhtb8aBtZ8jPvx+VA6ytwbXj5svlDmJ14Zng5dg96wc1DQ3o+T2eqRk78dHX5yXqY8oz/2ZWH8kBFWNOhRlBSEzfitqB57nXq3F8RS+vLKU7met3FaI9kJ8jjQpypd16YRr9c41lnu/sWwtSjL3ovyk0ntuvHga5Q3H0UfCi3tam/00/rG4FI26MqR27sWyjDflH02u6ng8GUyqtBsq8SbpU2vSpazTt2tNP1ANqC9vgHZ/M3ILcrF5QQtCY9bhnPk5EDPwHPCdF4u8Amo7cBfKav6Ix360FQWp1NqmFuCVX90ttx2nP9Jib2YJHq3QUducSzpehx3aNhnnef37OE7thtld1B9Hw/vKfLLR1Ctzeh77TcMHo3JbtmyRVq1aNao0JkPkQ4cOSf7+/g6LEh0dLe3atcuhvzOPkcatyomTqMJJ6tQSyWCdcF+NRHaY4qdWS2r6iHBAglTW2ieHrMnV0Hmu1GuJ1y5lURhNbo0kGbqlmrIyqbmXUjX0Sp2tNVK62Y/C9+ryKa5aqugWkTulHPKLK2i0pCSnrc6X0+7r7Za6u02fXsrbSjZFJkVOMpekA41ygpIun8qlVmTrrcmV8yrrtCQv1eRQechfDm3QSdQnJuXrRLlaZTmtZTE0FlB8SKXtBpPc5vySJJ2p8MPloZRXI9V01UgaSiu3RpFzQKKhR8Pp8ty5c7Jcx44dGxp5HK6060qlnPQEiZpKOV/BJKe0Vc7JrM8qS2VolzkmFDXL/kKf6pwaRS9Ikmo6e2Wd9nZWyfUs6YBtOHN6Sv2QnMazhLXk3Svlqk31kHKX64KjPKkumfVhScesGtlPIw2UaRygmpJ0RZei3Zg5c+b4CXFJKfdKBXFKfVDaCNFOKG1FQj61A+Scc1Xut6QDSj0S4Rvle1e595W4dN+Qbq3vaTlcgXKPC3U51bEI7GHOFV1O1PNSYU46Fe2+rEtT2x9XoLT1dF+I9jK1RNGZ0+cAce/TifY3V1KeGqQrU1ugqKRXyqd7NbW03aShPqlAQ8+jnCr53NxumDxJzxqSy7pumJ8hFMLmfnVer8zpuet7pLrkni16ukwm11W5EzFPaxGXEIeG3fHYZvo1YS6jGATK1fWivr5e/ki9jTRPZz+W7X5PHqqTh/aTguVfJ0ocFa7X0EieOPEJwMzzNPl4li+m+c5CUHA0sumy6JEacEHwFyMN+ha8Ql9LF86zeN38/R/SnLKLwhN7F83BnDmmzyylh+kc+aQWVaCReiB0NTWo0TWjVyrBg2GmuQIXaXCIhjDFDAOf2VfT/wY6oC+T+2bUXfKRfInmJoihpIsGejOg/yz1UQG3Rw7I4jN/Ic04AHQfK7+25Yjyv5Po0CvjosPmMRDJC4/66Q3KFgRErsDWHcWolww0R06H/CQ1nl652arnJ1TRp1zCANykAY5/OjCsrBT8Svrai2h62ULodFZQDNUo4POOM4q3zX9T/ZCvDRevARcVVcihp9ukM1xc68DWeVpf52NHBL6km0eTq1PaCKme5uKIj4TiTQutojjgqv8MVRTquusGWoZ5ty813ftW0cWh1T0tTuctFOHMt/VIdCxis3NMQLS7uegV7b6VPqWSx+X2VMQT7eWC4DniUJm/6ug5QP7m29L8PdBPJUeHyO0blrfcjfiSzoP8XJ23OQb1ShHDo/6zseVR6hilMD2VWLPkabJYSlBSTB8xShR/jzIEaJX0dGsLRTUfNwmr4/gJeRK6fNO832G1PIQRneXKVKv+pkKEx6cgvqgKnd191Pj2Il+j3KRWySuHqhuwlo4+PCGbafK19mNH6AeyeGSq8Hh5KxlVjcqneb18w8s3+3e+i7CwSEQuXIiFkbQUg5Ka/F/Ipr5qtnxsPCO6ndWYaWVsnW49rvjJ/03/fCmA73TMpNOWU90DPj2tNBVcjegQ86RPDSo626k85Vi5/Hl5foHLeQyk6j1H+hoEh4dil2Wsz4fmyEViwy+eoDL0wmBuRcWxpVTn8Ek5jepep+jAfNlwsYMOs0CdjKCuVKoXfWisKsO2VTeag9j9dhZPUasatgbWQDLO4g6E4qMJIaAKQSxl/Omn4o5WXHut+d43X1G+re9pWx+AdTyYyCjPqfvaqrm0n5jpxnf2HLAf0d5VSyMyxLPhy4FWZYinowsjqFeOkpjI62xsTST9Mc27C3n3L0E5UtG4S1hPNAC3Q4ck+ploNh7ENfFbs7L8XdRWV6O6uhLFO1OwXksDiRvukt8yuvFW0fuUjF0Ha6E36lG5ZyvIfMOGu+hOvSh+nwA3hYUgUGVEbfE2JJdTmtPt/WIJwq00xrh/9U4caelBT9sRPJtMGZkmyKsC55NRFaZ8rNftGXjKy3k5+qdSa5BAZYvZRhP09f3oqjuIh0kY9Vql58v80+tUbT30PmFYS7LsXf2cLEt/TxN2JsdT0nch2Gxr0Zn/lXOx6Q8lVP6nkUoTOIfNwyyc4zbFHMLzvlVhyNUAmUvuQN7BSrS0tdE6OVr89AGa+KpegRssVm45tu/SoqtfT/regUwqydrYUJvy3KwRZnUmdtALCnqDHnXaZ+XXwA93OQfjLJ5fZByZbw1Y8thO1La10MsNm5BMPR6i/grnLK5Z90pI/n+pBMpP1aK6thqVlZVWn1r0OFcrZReIVblxdL9tRnF1E5oqC7FVNDKme98sz3CPW6c6NifC364TaPg73hPtvrU+j9C9LxQ6SKdOnwOu52gT0vyz21dFd3FmNrXFXehq0iJFPEQG1Q2biJYT1+qVJbiHHQxr6HqYvCyOAwJNxb+EeCGkqHE7wsxapeUgnq8pwN7o9UgtpuUd7gdEx/z+lHh5mEdJSo3U3FJsSwyTTwMW/RQ1Rf9E9Opo+cEqLmaVNCIxzI+OHkBB0m+wPjoI64VHXCqyaNgps/Jv0G+KFFfImR+HPlixvRW5bcFYFrpX9omLI4OtVz60+88c064nXbQx6ahsexrJMAqPRzBN0hdOk1qEN7YtVX69iZ41mqCWvD4GnapmFJMs+afvIVnmyGGhTkJZ6w6EEKv+6VfQNZogL3zm0+vM9IZB1PqH8cjdOqd5+MjxSOorZuImJVUv+h+IzdpG4MlkpKxeghSz5HFZqNn3JNEQg72K02bGI0hYWeRySpsRN1epYGZ9qCI3QXegE1GrY7BbCYbU/ApkLFLegjWHU7wGtDxcvG3dNbhwfzSig5+GOi4BGkrAXH2cxjV+MUgfA3maxOOvYQioRAWg+yrGrFBLeA2qeo8iQj53zHXh5iKU9m/CyphwCqlBnMaSAJT7Zq7V8PSAn3xEzYRwTnWsBOH/LhMQfcR7SR9KW2wdLaeqG1ujZ9vcM86fA6bYJj2JM9t7HHKPtPU7KMK+CjX9KI+8bxtSfx1NbbGwsOj5k6pBuTIoYUr40uqVKbLnfo12MtlIJ4mNNj9Pje9JE+THhBFNgO/u7pX6bGbYKymLye20PovL2ciT4cWk+nFxNMGdJtr32hOU8qP1gWxeEujr7R2R7IrIzvMYSbE8bYK8LDsxEi8rDGaoTKqNk18YMBA3B4gHim8wpzNwyaUje/H6GqWspCx5ErWShmlyrGkCryVde3EtnhN74L0T5EfLrU8qzUqScstaLQlVWb+8Yrnq4oEH69i6BJ48Qd5azhEdO3kOjCidIYGpTRXPEdcfI5TCGNerITKN7MJIbR9zH4jnWoMs2cQQ8FEhwGqIzVoIP5UDD+tAVscivOgXGx/nA5UjQSlDsT6QtfNTWcbHrC8Pc+w8j2Eie743MQoYxEkW2nCWvprlV/R9iNuwjQWt3RYQYMvbpcLbi0fyXNibiei9R5GeE4v6pzNpjl0cqhbPt03SXlzbEHzmdgJ+NEfyfaQsC8aH6VmY3/Y6svc3IKs0Xp6qMGJxWMcjRjZmEZw8B0aXB7WpI3yOUGs+tvVqdAUYcezLRhyDIzABJjAlCPjdGI+Skj0IuQT7afSA5mNHXzvKitbiqi+vwMqiUjR3/xGm5eBGnzynMK4EFm+rQWPFAdx21RW46rYttBZeJ7atGGQoj6sEnPhkJODN9WrYH6uTUWFcJibABIYn4BMQhrg4ZS7f8KHHIYTfXCxN3ARaDICd1xHwQ9jiB+njdYKzwB5NwHvrFfdseXTFYuGYABNgAkyACTABbyfAxpa3a5DlZwJMgAkwASbABDyaABtbHq0eFo4JMAEmwASYABPwdgJsbHm7Bll+JsAEmAATYAJMwKMJsLHl0eph4ZgAE2ACTIAJMAFvJ8DGlrdrkOVnAkyACTABJsAEPJoAG1serR4WjgkwASbABJgAE/B2AmxsebsGWX4mwASYABNgAkzAowmwseXR6mHhmAATYAJMgAkwAW8nwMaWt2uQ5WcCTIAJMAEmwAQ8mgAbWx6tHhaOCTABJsAEmAAT8HYCbGx5uwZZfibABJgAE2ACTMCjCbCx5dHqYeGYABNgAkyACTABbyfAxpa3a5DlZwJMgAkwASbABDyaABtbHq0eFo4JMAEmwASYABPwdgJsbHm7Bll+JsAEmAATYAJMwKMJsLHlBvVUVVWhubkZ/v7+bsiNs2ACTIAJMAEmwAQ8iQAbW+OsjaKiIsTGxmL16tVISkoa59w4eSbABJgAE2ACTMDTCLCxNU4akSQJGRkZeOyxx7Bz50787ne/g6+v7zjlxskyASbABJgAE2ACnkrAx1MF82a5zp8/j3Xr1uHo0aM4dOgQVqxY4c3FYdmZABNgAkyACTCBURBgY2sU8OxF/eSTT7Bq1Sr09fVBzNUKDw+3F4yvMQEmwASYABNgAlOEAA8jjqGiv/zyS0RFRWH69On48MMP2dAaQ7acFBNgAkyACTABbyUw6p6tyy67TB4uCw0NnVAGXV1d8tt+M2fOnBA5xNDhV199hbNnz+I///M/cfXVV4+ZHIJxTk4O9uzZM2ZpelpCwlD94osvMHfuXE8TbUzl+fTTT/HQQw85TFPoWrj77rsPM2bMcBjO2z16e3thMBjG9D7xNCZff/21LNK0adMciib0LXrBJ7r9dCjgGHlMdPs8RsVwmox4BjjTtYjsKc9LpwUZpaeYr9zR0YFrr70WPj6jNjFGKc34RT99+jQWL17scgajJpGcnIxvfetbEIAn0j377LO49dZbcffdd0+IGBcvXsSJEyewcOFC+TOWQuTm5qK+vn4sk/S4tOrq6mRjMj093eNkG0uBRGMshpkdOT8/P7z55pvo7u52FGRSXH/jjTfw2WefISUlZVKUx1EhrrjiCrm325H/nXfeicLCQhiNRkdBJsX1iW6f3QVx3rx5TrPylOelUyFH6Sl+OP/sZz/DI488guDg4FGm5tnRxfPeVTeNjKSJtZJclXSYcLfccgvWrl2LLVu2DBOSvT2RwOHDh2X9nTt3zhPFY5nGmMBTTz2FxsZG+QWSMU6ak/NAAtw+e6BSxkkk0cN35ZVX4tixY4iOjh6nXLwvWZ6z5X06Y4mZABNgAkyACTABLyLAxpYXKYtFZQJMgAkwASbABLyPwKjnbI20yPqOFpzqBW4KC4GfVWRjTxsaPunH9eowBPjo0dLUDoPF3xd+VwdhfqDKcmU8D7raWmCYMx9zVW7HM57F4rSZABNgAkyACTCBCSDg9p4t48cHERUeig2FdQPFNbbgqTnBiEp5BxD2jb4eG2h9KrFGlfIJRXDQLERkaKEfiDVOR3q8FhyKeb/VjVP6nCwTYAJMgAkwASYwlQi43dgKWLQVVblx2L8+CsVN/cS6Hwd/GordSIDuz5sRIOj7+GIWfWWVtdLr4X30anQvdCU5aMiOR3HdeJtbPlBpALV1t5uQiR0TYAJMgAkwASbABC6BgNuNLSHjos35yFED6x54FgcLM7B6L1Cg24NIKwOHRhoRNC+I1unwg5+fCpH3rISGrp3tM78ircfbeWnyuibidfp/fNyJ0xcogOyMqNPuRCxdF37TpkVg+8E6mGM2FachNjEN8RHCLw3H/1GJtFglbETiBvy6HAg1pcRfTIAJMAEmwASYABMYDYEJMbaAudj6bhniGrKxev1uJBXp8Hik7Xws0bP1+isv4+DBgygu3IO05VEoRxYeWiT3faE6Lw4radgxv1SHZl0pZnZ+jJ2vfIgeiqev/S2i4p9GTFEFWtubUZITiszVKagxdYpd1H+E8v27ceWj+cjLi8QrYUuoZy0HNc3NyP5WBxoE0eniHzt3EfD395cXpXVXfpzPxBJgfU8sf3fnzvp2N/GJy8/X1xfiI9YMZDdAYOJmgM8NRgTJoaVPyA3fHJDIdHSl8MtORqeausDINcgW0D/Q3NaP+fM7oU0pR1xBIzatCCPfSDTU/CfmRP8MH3YY8f1rvo+yCh1uXxxJllcPIqKXUpg/wVckZHbqXOzZugk+dXvgDzXK3tiKhYHAwm1vICszCEcvmgPytzsIxMbGyovCuiMvzmPiCTzzzDMQCwGzmxoEDh06xD+mpoaq5e3qOjs7MXv27ClSYteKOUE9W0Zo00KRTQODCXHA00s2oFJ0SVm5DjrO1fXKK6eL1dOl3kakYz+W7X4Pxv6zaCP/2yPnWWIEqO8AJQXdx3qo5n0T/zz6K/jTEKL/rDkIXSZWqRZ9ZSZ3kQYp4yMg+tKUoUWy5Cxm5wxcrzEH5G93EuCb0520JzYv8ct3orbWmtiST83cVSoVLr/88qlZ+ClYam7Lhyp9QoytNu02xO8GcireRPEfdTQ1Xoslj+2RhwCtRZw+YAEBqvm4SVhTx09A7zsdYgfEllPdA8F7WikVNaJDAlC3LxHrMoESXSt6DRKkzlIKRwaWyaAy0Jn6KmurW43pFmML+HIgVT5iAkyACTABJsAEmMCoCLjd2DK2aXFPfDbUWWXYupjmX/lE4sWqXBozTMbPrZaDEP1QleXvora6GtXVlSjemYL1NOaYsOEuWocrDGtpC729q5/DkZYe9Pc04dmkeIqxHMGUpEEenYjAzQvmwa+/BXkbVpJfOU51ircfbZ1KvRypNEtr07ZidPT3o0mbjeRy6gfjOVu2oNxwxlv1uAGyh2Qh9gK8cMHyRouHSMVijBcBsdm2eWPu8cqD0/UcAtyW29GF2BvRfa5dorcQJbK0pFaDba4VOXFij0bpQHOfJPXVSAl0LM4HPmopNbdU6jZHM7RK+UnqAX//b0qbn90t+/a1lkrUCWbxS0hPl8/TS1tlf12uRlLn1JhTohHKEpvwIs+4/AF/S0A+GDcC5eXlUlBQ0Lilzwl7FoF//dd/ldasWeNZQrE040ZAo9FIv/3tb8ctfU7YcwjQRtQSbcAuNTQ0eI5QHiCJ1eAZmRjj7ugtxHoJW+3ks3hrCSSLx0IU0/7YxXbCWS75zMem39XjR8/rad6VD37wgyW4foYYIAT85q9AiWSgufH0+uGMAKjESxE7dsh+4l/k5qOot5zRCGVYnCW8jyoAfm6mYiXKlD0Uv4TEBqbspgYB1vfU0LO5lKxvM4nJ/20wGEAGF7fng1Tt9WaFH028tO9ocdIAZZkI+/6Dr440/OD4fM4EmAATYAJMgAkwgaEE3D5na6gIfIUJMAEmwASYABNgApOXABtbk1e3XDImwASYABNgAkzAAwh42DCiER0tOjSe7ILBdzZuioxCSKBpFVp9B5raaRudsCD0tDTDEBSKuSoPE98DFMoiMAEmwASYABNgAp5FwHN6tvR1yIj1xbzQaCxbuRIrl8UgNMgfacV1MjH9iVcRHr4cNef0yA8Nx67jo9yQ2tiBPNoPcWf1oNVUPUs/LA0TYAJMgAkwASbg5QQ8xNjqwZ64KGSXJ6GsuRv0liZ9elGWE4fd66JQ3ELrY/leRaiD4CsFILm1FRnRjibGu6gRw2n8qZzeXPSf4WIEDsYEmAATYAJMgAkwgZET8Ahjq7/udXkh0fya57GUVoBXnApLn/wP5CalAl3WvU96vPfcZhw6qSxQ2lV7EIm0LU9NTQ2e2nUQ2iZzWD0OpsVj4/YMxJL/NPrEZxSjS05cj+INYmNrICXKH4V1o+wlUwTm/0yACTABJsAEmAATGELAI4ytC31nSbA43KIe1FvlE4LNv3sBiYvm2gje8b4WnQYjxGr0QdGrcS6nBGseWo2nfvA14sPvt+yzePojLfZmluBR2pS6piSXNrZehx1asauiCrFPFNDmPpRrTinuXmCaF2aTC5+4k8D111+PW2+91Z1Zcl4TSOBb3/oWvv3tb0+gBJy1OwlERUUhNDTUnVlyXhNEgBY0RXR0NK699toJksAzs/WIGeaft7QQnWb0id07RmD3NJT+niIkYdv6WNzosxg+xn+g/b9i8OqRFix+MEgkidTSd/H4YmGs3YQCTQp+3fgZWVjzMTd6IcStv3LlnTzRnjhMtIuMjMT//u//TrQYnL+bCGzYsMFNOXE2nkBg3759niAGy+AGAj4+Pjh27JgbcvKuLDzC2Jr3ne8RtZMYOn3KiKbKKiAsGvPscr2Sru5FdNBeG9+4jjN0HgSxReI3As29ZUZ5g+kgP18lLK1yS1tT46JhhBaeEpv/MwEmwASYABNgAkzAJQIeMYzod43oeSrHS2822QrdU4UHlixB8h9P2l43nRkudtBRFjrFhHqDmFTfh8aqMmxbdaNVeKPVsZ1DX4+wN+0IxpeYABNgAkyACTCByUDAI4wtn7lxqMjRYO+6cGQUHkFLRxdaarXYeMcSNNBcrl8nRtplfbNmLV3PxI7ialR8WIHyV9MRHrMMh7scG1id5pRMQU7V1oOnx5uhTNz3hQsX8N57702cAJyzWwl88sknqK+33qHUrdlzZm4mUFtbi64u5fUkN2fN2U0AgbKyMnz11VcTkLPnZukx3TqLt76JUr+tWLl+GbLNvDSpKNNux0IaCeyffgVdnSX7TKf/4l1EVeQm6A50Imp1DHbLPjRHK78CGYsC6UwPcziTF1QUPXS6aRhRdQPWJgDJ62PQqWpG8YMh5mD8PQEEjh49ijVr1kCvZ9N3AvC7PcsXX3wRDQ0NeOutt9yeN2fofgI//elP5fv7ySefdH/mnKNbCfT392P5cloTk1YIWLhwoVvz9uTMPMbYAgKwYvPvIP00lx64F2D0mYEA1cBseb+wx2mY8HGZ5cJ6ycI08sFtNIT4FP7lltvxwJpEPLNpsclPhU1W4cQbiIklEhItMQOxqVjCj/b1w9dvIB+L9xgcGHs60Nzti2tn9eHzXn+EhgRiOOBdbU34+PR5zLzmRoTNNy+D4aowRrQ1tWFWaAgCfIzoopX2+2bNg39fO3p95yFkrnn+mqvpuS/c119/La+v5r4cOaeJJMD6nkj67s+b9e1+5hOVo9C1cGK9THYDBDxiGHFAHDry8YMqIMDG0LLxt3dCccQbEDNMnVb2gji65keG1nAGkKO4w13Xvboc4XGv4cM/bkZ46BrUOO206ULhxmkICg6XX5sND56D2O1vyz14w+Vj9u84sgPB4aH4nU6sNdaP12il/XteO4o/PhaO0Fd5yMbMib+ZABNgAkyACbiTgOcZW+4s/Tjn5Ts9VIxbYqZKTNj/LszbPNrLVl9bgPX0UuWBRmUF/c6aApRnrsTeWqcW2kBSPZVIXJYpn5v76abTQmKh02kwld4/UJvfwhyIwUdMgAkwASbABJiAGwiwsTWOkBfcQuPVzVcgZOECymUBgkQXmr4JeRtj5RXtxar224trIebqd/ddhVRaYHVVmDJ0GBgVQ68GiP4pZSa/eaV8EWdaxEarlfIpEGi7o/uXoDyBJqFZnB+Cvw/ceFM4vvstMrqunm3x4QMmwASYABNgAkzAfQTGawTNfSXw4JxU6ifQ+RcVAlV6dHbPoFljXchbFI6UoHRUNP8BV50sQdTKaPTQBP0X4jbhBfN0MypT0+svQUvfP75GZVkpP45Wym99JALH9v1CXim/ovsoFpNtVlf4c9ruKB2t3Q8hY/9+ExEfLHu+E9/3C4TfrZ0oom92TIAJMAEmwASYgPsJcM/WeDL3C0BgANmzPuLbD/1N7yClAcjZ/hNaiHUWFtz5MA4kAbvTD1Pf1IBr0WYgfN1uJBTU0GL3PrBeKX+W3xzcnZyOBJTLK+X3txxE1Pr9ONC6A/MDpuMcJTN9prK5to8qECqRvel7IAc+YgJMgAkwASbABNxFgHu23EWa8jFeVOZfPb0kGE9b5xunMk3S70dl3gYsSdmPpIIq/O5xGoaUnYOV8j/rwH+9uppC0PBh49vQ/u//yb1hzf/xMm5/bgMiA1m9JoD8xQSYABNgAkxgwgjw03gC0B9oNeBB6rESrqupEnVn5tKWkP14e/s9WJlZjtyKdmyW93NUhBtYKX8bAsUULp9+NFV/gPOBC3DqozhoNB3ItFq/pmFvMj74eSIZW5671INSMv7PBJgAE2ACTGDyE5g0xtb69etx6623erTGVOrlSCUJV2fsQ+OLP8K13R9gQ/gyaJNK0HG+WDa0qEsL37/qM1RWttDGjfQi4fdioKyUn0wr5d+F7fdH4NSfsxEVn42sqk5se6EED5pLbaxDvG8Ulur6sCnS/E6i2dOzv7/73e+CFzz0bB2NpXT//u//zuvwjCVQD0/LG9pnD0foNeL5+/tjy5YtCA0N9RqZ3SHoNFp4jFcecwdpUx79LW9jQ+hKmKexIyEHjfu24kRGBOJ304SuQS6nqhtbFwWg7uB2WilfWdpBBBEr5e+iBVxtrOX+WsT7R2NpTTc2LxzpgqiDMnZyKrZhuHjxIsQaZeyYABNgAkyACTAB5wTY2HLOZ5x8jdD30PwtWiVfZbVK/rCZGfvRQ6vr+8wIwEiiDZvuCANkZWVhx44dWLlyJR5++GHce++9mDlz5ghTGY/gerQ0tWPW/DAabu1C06lezFOHyC8JOMutp6UWH57sQuBNt2FhyNgaqT20I8Dfm1tx3uCLwOBQqMPm05Dx6Jy+owWdCBq6I4De9TLbl8CIDtp1oNdg7StWCjbAl3Yi8OQdCKwl5mMmwASYgKcR4LcRJ0QjPvIq+SMytISctFJ+AK2uP5GGlhDj3Llz8iajYl+7devWyTLdd999eOONN3D+/HkRZGKcvh5x4eHIpxX09SfyER4ViuNiE00nztimxZzQaNlw3HL4IychR+hlbENe4jTMoR0BlixbSekvQ3R4MPwjMtCkvCcxwgQHgp/YF4rQfWJHACOq9yQiPq9W9nS1zAMpDTrS12A57ToQTgwHPqHysZLfoPB8ygSYABNgAi4RmDTG1r59+3D8+HGXCs2BRk/gsssug9gDy2g0wmAwyBsKJyYmWgyv119/fUSG12effYbnnntudIL5+ELMEphNnTGqqDS0tnYiZph3BAxnOyhGHHQGCUc3m9/+HJ0YYinag08FI2W/GkVVrTDQSL0Yre9uLkVcQzbCt71tWqr2EvOZrYH6CqXH6fhv9qMZ4tj1MjvMVRWNmt5e9PX1obe3j+TulpcmEeELVtHKuOyYwCUS4Pb5EsF5YTTR1j3zzDM4e/asF0o/fiJPGmPrpZdeQllZ2fiR4pSdEhhseFn3eLlieP31r39Fdna20zxc8ew1Bepv/h88ds8ONMi9SP2oLsywrNofm7YHbdTj1d9UjOioZIrRjCjfCBTWUWAHK/yL9czi49OQYVr931lYY9u7WL0bSC/5MxIXzbfMqwsIWYG80iwk0EilGKkT+UdEbEeLskkAXajDRtodQIghDDZ7Mgsfs2sq3IBkmubXkBKFxMI62Ja5Cwe3J5rKHIuM7RsRu7EYctIO0/aBn0olz8UTva5t2l1YvZfmBx5oxOM0B9C5vPRmbe1BJIodDuzsctD0dh4iTH6JaRlIjIhFsVzQ4ctpLi9/ey8Bbp+9V3cjlVz8WBM/nE+ePDnSqJM6vM38am8oaXd3t/zLe7CsYsL2mTNn8Omnn9p4iZ4X8ZkxQ1no08aTTy6JgF6vPLIdRRaGl3nndzHUeOjQIYiesNjYWHl+l0ajkXvArOOfPn1ajjNYfyKMr68vrr32Wuvgwx4bL55GecNx9FHIOjJKYtYfR36ZDnHBZ/FiWcMB0wAAQABJREFU3BIEf3QFeoruRl5BKpatB8pqfoKFEReQF2l/hf/twaeh1e6GNi4L+bk/RPg15x3uBrB9XivlqsEDy+cPkXP+im0oXqFc1tO6aw0NR9HVvw0hcg+cAScbTjqVubfkcUuaoff+Aunq/Si5qwBb714A4+kPLGWu3rkG4n2KoqpGLDxfjgeWJaNB8z05riMeIm1zR6C+rhih9MarOr0Uux4Mk+OJdeIcySuGY4OiV8PeLgff/aQQ4StTkJRfBu3ymfh9XAyyyUi8zWAk3WyyqxtrWSwF5gMmwASYgLcSEG8jeov78ssvpSuuuEK8PcmfKcagoaFh+GraVyNpiEtuTbfUq8unOqKRaFhMytdQfUktkbr7eqXu3j6puTRL9qvqlaQ+XS4d50p9lHpfY5Fcr3IqWqW+Xkqjr1OiFf4lqHOlj+X01FJFtyLG8GFF3iaRSS5adlZOW6m7SbLfgIwD4TQkc9UwMtfkaiR1To2QWCqgsmlydXIC5vRqe1uldMov6UCrKWFJasyPo3LkS73054yHHKG7SpFXkyt1WlKQrJiaLsq8hbySpBPpg8rVSYy7iV2nkkbSgWZJyCsYmnFInaUyi7yaT4aXxSp/PvReAtHR0dKuXbu8twAsucsEaE6vfH8fO3bM5ThTIaBX9WyJuUFkcOFPf/oTvvOd77hk34q35k6dOoW9e2k8hN2YEMjJycHLL78sz9UaLkExpHT55ZfLc5Zuv/12uYdL6PGVV14ZLqrs39/fL+v6kifef3kCleWUVHk85tDQ3oBLkGc6mUfw5G8nK/xfji8pahD8TXeM090ADKLnrxN95sT91NhaVoK1hpm4eOJ1rE75fEAMe0fDyDwQxShLpQxKDlyVzn2GKjqNvW6W5eK825cCyRcxrd85D6ADeffH0NIkCajRbkagJYXhDhzsctBxBr7TKW58hKXXDFfOlTdZl75sdqqb4XJkfybABJiAtxDwKmPLDPW6665DSEiI+dTp95w5c/D555+7HN5pYuwpE5g9e7ZTEmLIUBhYYihx+fLlSEhIQFxcHK666io89dRTaGxsdFkfl2xkmSW84gZEqsmEeKIGRzctVCam97Tgvb+ewY0O1mCwv8L/u+YUbb7thQ28sYMGERuw6TdHUL+NjBxa7CFyaRwi6cg4V8xjeF2esyWvWotZ8DXfhZ2naMdLcsPIPOSdyenKBHkRVXZXhiCWDj79VMxgU5ayaK89AqhXQvJzzCPEz0i7GCQipVyNktaXsdA8pqikSv9plV178tJVx7sc3AjDYQpQchL9O5Yqy16c65K3lVp2xXUj1g2lxI4JMAEm4HUELvM6iVlgjyQgDCwxt0oYWXfddRd+//vf44svvkBpaSkeeeQR2dAad8HNPUlWGRmob+b2tWqUJ2+Htq4DBn0bXt0aimXLtmNw/5L1Cv9NPbSmWcsRWuF/CZYV1FulqBw6DRuwGPkHUtGQuQyxaXmorGtCW0sd3i6mhWnlCflz5R4yn5lXU2Ja/Pe7deghA3BPxmo6J+NrBDILacr/+gFaSF6zE2VelRuHvas3o7i6CU2Vhdi6Xis65sg55lH7P9uUXQwSnkDQ6RraxaBy4FNNOxo4lBemXQ4yaZeDauipZ69O+yzCY5bhcJcR6lUbaBZ/MjIKjxCHWuzcsEwWVTJc7bJuzGXjbybABJiANxIw/6b2RtlZ5gkkIHqtzD1YNN5Oxssymx6sCRHNbyZuMmXsM/0KOlKMmsiMd1HQQ+tRRc0z+cahSPcHhFHtl6f6U8+X7HxCsIOWZ+ikFf7D94u3FMmJFf7JcPE5uYdOBobl4CwshQx78AU0ln4LW59MxhKr4cuE9Hy8lkabhItetZD7UZIVR285RiGTTjUJcfRfcYudyFxnDkQDcyvTaHZWfDJC37+Izj+KrihTmTcXobR/E1bGhNM1DeI0lkhwlPa82q1KICp7jGWLA1M8TQH0Rx9yKK8qchN0Bzppl4MYmIsrdjnIWBRIb2Mmor1Cj+VLlsl+CempZGO+g5tvUDmUReiGHRNgAkxg0hDwpolplzLxjvZoklatWuVNxfR4WTMzMyUfHx9pxYoVEs29kugtUJdlHqk+LkXnjoTpo4nn3d29Eq17NYwzSL1ikjdNph/eDR/WnG+fg4wNQi4HeZnjOogqi2cw9EkGmwB9UmlWkpRbNjBBvipHLU9SN83vl+O5kra98juTVyJZ5AnyVuiaD2RJSTml8ksIIr2+xgKaQKuWJ9ab079UWczx+duzCfAEec/Wz1hKN5Zt9ljKNdFp8e/HSWM2u68gv/zlL+WNRq+8UkyK9h4nryHlkrjKCv8uBaV+GxWt6u/MDZevD61t5SiF4eKKfH1oZwFb54eZeB8py4LxYXoW5re9juz9DcgqjbfJx5W0bdNVzpzJq+xyYCvP3H8JoSHNldj7QSqyFp5HZia9rLLhFYg5YiS9nOilymJPPr7meQREL7h4WYbd5CcgdC0c69tW12xs2fLgMxcIiLlZ4sPOcwks3laDxtjDeOeDFvTftgUVv7oXi8Ncf7dwLEvmF5KI3tYQaEvew6f9fjhA652FhcxCR309AqOixjIrTstDCeTm5mLBggUeKh2LNZYE/Pz85LUVo/jetsHKxpYNDj5hApOFgB/CFj9IH88oj2r+IiRuXuQZwrAUbiewaBHr3u3QJzBDmrozgbl7Ztb8NqJn6oWlYgJMgAkwASbABCYJATa2JokiuRhMgAkwASbABJiAZxJgY8sz9cJSMQGPIbBx40bcd999cGVDcVeF/sMf/oBnnnnG1eAczssJJCcn096itNYbu0lP4KuvvsIdd9wxZJ/iSV/wYQrIxtYwgNibCUx1Ah988IH8oFy3bp28gfhYGF71NDn++PHjUx3tlCl/TU0NTpw4MWXKO5ULeuHCBbz//vv45z//OZUxDCk7G1tDkPAFJsAEBhOgNWpgNBrl/TDfeustWBteb7zxBka9rdLgDPmcCTABJjCJCLCxNYmUyUVhAu4gIHYPsDa8EhMTx6zHyx3ycx5MgAkwAXcTYGPL3cQ5PyYwiQgMNryse7zGco7XJELGRWECTGAKEuB1tqag0r2pyOJhLpyYJzRjxgxvEn3SyPrxxx+7VBahK7O+SkpKID7CBdAK+3PmzLFJ4+zZs3LvWGhoqM11cSIWv3z33XeHXOcLTIAJMAFvJcDGlrdqborIbd764fHHH0dwcPAUKbVnFXPbtm3o6OhwWSjaN1M2pGbPni0bX7fccgvWrFnjUvy6ujr8/ve/dyksB2ICTIAJeAsBNra8RVNTXM74+HjQZrZTnMLEFP+FF14Y1tiaPn06Ll68iLlz5+KRRx6Rjavvfe97EIbW8uXL8eMf/9gl4Q8fPszGlkukOBATYALeRICNLW/SFsvKBDyIgNnAmjdvnvx2oui9EgYWOybABJgAE7AlwMaWLQ8+YwJMwAkBNrCcwGEvhwT8/f0hPuwmPwFfX1+Ij9iQmt0AATa2BljwERNgAnYIiDlYwnEPlh04fMklAocOHWJjyyVS3h9I/CDr7OyEmLPJboAAG1sDLPiICTABOwReeukl+ZcqDxHagcOXXCKgUqlcCseBJgcBNrSG6pGNraFM+AoTYAJWBG677TarMz5kAkyACTCBkRLgRU1HSozDMwEmwASYwIgI9PX1WdZgG1FEDuyVBM6dO+eVco+n0GxsjSddTpsJMAEmwASwatUqiOFodpOfgFgC5pprrkFjY+PkL+wISsjG1ghgcVAmwASYABMYOQHR08GblY+cmzfGMBgM+PLLL1nfg5THxtYgIHzKBJgAE2ACTIAJMIGxJMDG1ljS5LSYABNgAkyACTABJjCIABtbg4DwKRNgAkyACTABJsAExpIAG1tjSZPTYgJMgAkwASbABJjAIAJsbA0CwqeTg0BtbS22bt0qb4T82WefTY5CcSmYABNgAkzAKwnwoqZeqTYW2h4BYWC98cYbOHDgAFpbW3HrrbfKGyQHBQXZC87XmAATYAJMgAm4hQAbW27BzJmMFwGzgXXw4EGcOnVKNrB+/vOf48EHH8QNN9wwXtlyukyACTABJsAEXCbAxpbLqDigpxAwG1jWPVg/+9nP2MDyFAWxHExgEIGoqCiEhoYOusqnk5HAFVdcgejoaFx77bWTsXiXXCY2ti4ZHUd0JwGxGrEwrqwNLO7BcqcGOC8mcOkE9u3bd+mROaZXEfDx8cGxY8e8SmZ3CMvGljsocx6XTOCrr76S4z766KOYP38+hIG1Zs0aeYjwpz/9KX7wgx84TXv69Ol49913MW/ePDnc119/DbGxck9Pj9N4N954I9555x1LmPr6etx///0wy2PxGHTw8MMP49lnn7Vcffnll23OLR6DDnbv3o17773XclWUzTp/i4fVgTeU7dNPP8V3vvMdK6n5kAkwASYw9QiwsTX1dO5VJb788stleRcsWICPP/4Yu3btQktLi2xwJSYmYuHChU7LI7q0rbuzL7vsMmRkZKC7u9tpPLNxZg4k8hfxjEaj+ZLd78Hy3HnnnbKBJkmS3fDi4rRp0+S3Jq0DCONycFrW/uLYG8r2b//2b7j++usHi87nTIAJMIEpRYCNrSmlbu8trHjLUBg8b775pjyUeNddd2HOnDl44IEHsHr1aixZsgRmw2y4Uv7whz8cLsgQf39/f/zoRz8acn24C8HBwVi/fv1wwYb4L1q0COIzUudpZduzZw9UKtVIi8HhJxkBMc9SvLASGBg4yUrGxbFHoKysDLGxsS63yfbSmGzXeJ2tyabRSVyeq6++GklJSfLw2j//+U8899xzaG5uhjC85s6di+TkZBw9enTYob5JjIiLxgQ8koAYFn/llVc8UjYWamwJ9Pf3Y/ny5Th+/PjYJuzlqbGx5eUKnKriC8Nrw4YNNoaXGF5kw2uq1ggutycTEHMlnQ2le7LsLNvICAhdC8f6tuXGxpYtDz7zQgLODC8xX4hXkPdCpbLITIAJMIFJRIDnbE0iZXJRALPhJXq9vvjiC1RUVNhMkGdGTIAJMAEmwATcTYCNLXcT5/zcRkAYXpcyYdxtAnJGTIAJMAEmMCUI8DDilFAzF5IJMAEmwASYABOYKAJsbE0Uec6XCTABJsAEmAATmBIE2NiaEmrmQjIBJsAEmAATYAITRYCNrYkiz/kyASbABJgAE2ACU4IAT5CfEmrmQjIBJsAEJo6A2EXh1ltvnTgBOGe3ERC7bWzZsgWhoaFuy9MbMmJjyxu0xDIyASbABLyYgNjdgd3UICD2ehV72LKzJcDDiLY8+IwJMAEmwASYABNgAmNKgI2tMcXJiTEBJsAEmAATYAJMwJYAG1u2PPiMCTABJsAExpjAvn37eGPiMWbqqcmJPRGfeeYZnD171lNFnBC52NiaEOycKRNgAkxg6hB46aWXUFZWNnUKPIVL2tfXh+eeew4nT56cwhSGFp0nyA9lwleYABMYQwJnzpzBp59+6lKKp0+fdikcB2ICTIAJeBMBNra8SVssKxPwMgLiNXDxK1d8XHWBgYGuBuVwTIAJMAGvIMDGlleoiYVkAt5J4K233kJXV9cQ4XNyctDc3Awxl2ewu+qqqwZf4nMmwASYgFcTYGPLq9XHwjMBzyYwa9YsiM9gN3v2bMycORMhISGDvficCTABJjDpCPAE+UmnUi4QE2ACTIAJMAEm4EkE2NjyJG2wLEyACTABJsAEmMCkI8DDiJNOpVwgJuD5BJYuXYrIyEjPF5QlZAJMgAmMAQE2tsYAIifBBJjAyAisWLFiZBE4tFcTuOyyyyD2zGM3+QkIXQvH+rbVNQ8j2vLgMyYwCQkY0dXShA690WnZ9B0taOnQOw0zFp7Grjq8faTJpaS62ppQW1uLprYel8I7D2REW1MLekwYumqPoLJl/MvrXKap4Zubm4t169ZNjcJO8VL6+fnh0KFDiIqKmuIkbIvPxpYtDz5jApOQgB75oeHYddy5YXFiXyhC99WPc/l78FtNFPI/vjhMPl0o3DgNQcHhiI6ORnjwHMRufxv9w8Ry5t1xZAeCw0PxO51iuPn0vY8loU+ixbkN6ixJ9nORwKJFi3Dttde6GJqDeTuBVatWwceHB86s9cjGljUNPmYCk5JAAJJbW5ERrXJeutkaqGf7Ow8zSt+eyt8gpSEVeY87n6+lry3A+r3AgcZuiL3WOmsKUJ65EntrnRuMDsXrqUTiskzZ288UKGBxGgo0e/GLV13rZXOYNnswASbABIYhwMbWMIDYmwl4C4G6wo00TyICERERiI2NRXx8LGI3FkNPf+89txmHTir9Ql21B5FI82fEnIppERuhbVJ6enwxCw1/L8X2xAjFL3YjjrSZ+5L6UV2YoVyneLFpe2D2aipOQ3zGTopnStMmnjW9Lry6KROa3HWYb7rsSJbuvquQmlOKVWEBcsjAqBjE0VE/7HdDOUpHyaYHe+5fgvKEBFOu5i8V7t6aDu36/+DeLTMS/mYCTGBcCLCxNS5YOVEm4H4C1y/5CSoq9uD3r7yGZx6dC622HLjuGxA9OR3va9FpMMLYpkVQ9GqcyylBa3szDqz9HPHh96NS2FvTrwT2Po1/3PY8GnUVSMdeLHvsZTLVgLrCDYhZX4L8Mh3amysQ804ygh8qlP0u6j+CNpviLS6leGVI7aR4GW8OHfLTt+ClBuBn8cpcDmeyzF+8CS9sXSHLTtmj6fWXoKXv8GuG9s45S0fErSv8OZLL09H64lYMNrfm3rYSairnYdPQogjPbuwJJCcnU30UGmQ32Ql89dVXuOOOO1zeD3Wy8zCXj40tMwn+ZgJeTiAgZCEWL16MRVHTcWT9fiChAG9uWwrrmRMNpb+nUiZh2/pYzPKbg7uT08kAKcerR1ro+jn65GDP5hUIi1yMH2+gvqROMbdKjw9eofRSs7H29gXwC4rGj5/PArSvoN48qqfOxZ5NIt5S/GQLxTv+BS5QTGunP/V/aKD+qQVBikTOZRmI2aLNQPi63VScGsTN90G/vgc9PaaPvh/O0ulvOYgoYnGgdQfmB0yXSzh95oyBxANCsJbOzP13Ax58NJYEampqcOLEibFMktPyUAIXLlzA+++/j3/+858eKuHEiMXG1sRw51yZwDgR6MDO5eHIpn6p5pcfhzIIZ50V9V5RT0500CzMmTMHs4JiQGYUPu84A1zsBdKjYe47mvudpSDrCNP6T6CynALtjsccf4o3yx+hK8X8p7nwpf9yvPgIS7x5C5V41kaeCEZdZ/ShPCwjgU5kkcP3ozIvEaHx2UgqqELx4wvpqh57F82RZRfyz5mVR1ccpPNZB/7rF6spDvVnNb4NbeEbcu/Yb/7jZdR1mYUIwPUa4O33P5Jz5H9MgAkwgfEgMLQ9HI9cOE0mwATcQECPgxvn4enyBFR170CInbvbcLGD5MhCp7QNgcLe8OlHU/UHOB94IwyHAfVVsy1yGg3KoeR3AyLVNBT5RA2Oblqo2Eo9LXjvr2dwI41RCjPFOp4lgSEHopdsluWqM1lEX9Pb2+/Bysxy5Fa0Y/PiuaZ4Kjxe3oq7vjD1Rflejd7Da8jPXpkW4NRHcdBoOpD55JOWfBv2JuODnyciMlCYlZ04WQ6syL7R4s8HTIAJMIGxJsA9W2NNlNNjAhNEoDpvHVbTG3xJRU/gm70taGpqok8LrJfXulkjBs0ysaO4GnqDHnXaZxEeswyHLT09VsLL3VbiPBC3r1WjPHk7tHUdMOjb8OrWUCxbth2fWwUf7lC14FaaH6VFu0kgZ7J0HdklG1rUpYXvX/UZKisrUXmkEi20SJYqcD7CwsKUT0ggwh2W6Qo8+EIJjh49ivr6etTrXpMn2efq+rAp0tR/138aVSS4n68dy3S4ArE/E2ACTMBFAtzCuAiKgzEBzyagx/EjygTkvetiaKDQ7DSo6tXKA3iiL0gVuQm6A52IWh2D3aYgqfkVyFgUiIb/M8ex+qYeLeEWZ7yLgp5ExEfNUy6Q2VKk+wPCqAWpM12x+TLFs7mm+ibuoguvH21GXGKYU1n+nPa6EnXvekQPFAY5Vd3Yush2cNRZmWzyNxiUU4OYTSZeG6BByYb3UQ4Nfn2zefBUvsz/mAATYAJjSmAarWEjjWmK45jY+fPnceWVV+LYsWPyQoeuZPXUU0+hsbFRXtHWlfAcZnwJjFQfl6Lz8S3BJEnd2I8e/QX4zAiASrE7XCpYv16PCzT8qApQ2Uy8dykyBWrTbkRw/HXKMKY50iXKYo5u+R5xOv04mOiPzMgq1G9dZEmGD8aewC233IK1a9diy5YtY584p+hRBLjNtq8OHka0z4WvMoHJTcDHDwEBIzO0BBA/lYriXZqhJeLPj/slUmkY8/+zdz5wUVfp/v9goIFC6ioWZmJQCbbgJpX2WxWumpot1Ka5ibuVq67UXdHVLsJ6daHrv5e7m7jedFdTV8HNNFvIwm0xCTMtoQVuAqtQUIoFKskIoww6v3O+w8AMDDDADPPvc3wNfP+c85zneR9m/Mw553vOa0fl3LHG1EVf9MWbfnfSjrr0EGbtC8cbL1FoNTHkAQmQgFUIUGxZBSuNkgAJmCYwHElFafj28JvYvXu36Sw9dLWyrB4Hct7CWI4gGhG/dk0uAcJEAiRgSQIUW5akSVskQAIdEvAeGYlhPlfx/vvvd5jXmhmGT3oRM8cMtmYVDme7vr5eWVZjxIgRWL16Nb744guLxODl5QX5YnJ+Ah4eHpAvuSE1UzMBTpBvZsEjEiCBHiKwcuVKyP/YmeyLgEY8RCBfZWIvzQ0bxBZMSUnw9/fHL37xC8yaNQsPPvhglxw+fPgwxVaXyDleod69e6OyshL9+zcvI+N4UVjeY/ZsWZ4pLZIACXRAQH7z7du3bwe5eNuWBG7cuKFUrxdeP/zhD9HVHi9vMdfvtttus2U4rLsHCVBotYZNsdWaCa+QAAmQAAkYELCk8DIwy0MScBkCHEZ0maZ27EC/++47bmzq2E1o5H1Dg9gUW7xuv91gn0KjHDyxBYG6uroOqzUUXuvXr1eGGocNG4ZnnnkG//Ef/4Ef/ehHrWyo1Wr06dMHvXq1/n4/aNAg/h20IubYF+RDFnKZJqZmAhRbzSx4ZIcEbt26pXj15JNP2qF3dIkEXJuAft7dN998g02bNimvzhJ59tlnsX9/4yK2nS3M/HZHQP5NSAH9r3/9C0FBQXbnn60cotiyFXnWaxYB/Tfhd955B3LOCJNzEJA9IiUlJdixY4dzBOQkUcierZCQELOjkXPv5IT6IUOGYMaMGdi5cyc6816VfwcXL140uz5mtH8C8u9B9n7KxU2ZmglQbDWz4JEdE7j77rsREBBgxx7Stc4QkBNo5QR5tmlnqFk/rzn/QcqnzWTvxdChQzF37lzInqmHHnpI+c9Viq3OvFfl3wHFlvXblTXYngDFlu3bgB6QAAmQgF0TaEtg2bXTdI4E7IgAxZYdNQZdIQESIAF7IUCBZS8tQT+cgQDFljO0ImMgARIgAQsQkHOw3N3dlTlYhkOEFjBNEyTg0gQotly6+Rk8CZAACTQT0K/+LTcpZyIBErAcgdaLnljONi2RAAmQAAk4GAEKLQdrMLrrEAQothyimegkCZAACZAACZCAoxLgMKKjthz9JgEHJvDAAw9wrzwHbj+6TgJtEZA7BYSFhSnz/trK44rXKbZcsdUZMwnYmMD8+fNt7AGrJwESsAYB+YDF6dOnrWHaoW1yGNGhm4/OkwAJkAAJkAAJ2DsB9mzZewvRPxIgARJwIAKvvvoqBg8ebJbHn332Ge655x6z8jITCTgyAfZsOXLr0XcScFACcuPiM2fOOKj3dNsUAS8vLyxevBg+Pj7K3nhyfzz9q6KiAlevXm06118PDQ3Fc889Z8ocrzkwgczMTNy8edOBI7C86+zZsjxTWiQBEuiAwJYtW1BYWIh33323g5y87SgE3NzckJycbNLdRx99FJMmTcKyZctM3udF5yGgVqsxZcoU5OTkYMyYMc4TWDcjYc9WNwGyOAmQQOcJ3Lp1C1qttvMFWcIhCbC9HbLZuuS0bGuZ+P42xkexZcyDZyRAAiRAAiRAAiRgUQIUWxbFSWMkQAIkQAIkQAIkYEyAYsuYB89IgARIgARIgARIwKIEKLYsipPGSIAESIAESIAESMCYAMWWMQ+ekQAJkAAJkAAJkIBFCVBsWRQnjZEACZAACZAACZCAMQGKLWMePCMBEiABEiABEiABixLgoqYWxUljJEAC5hB44oknMHr0aHOyMo8TEJg3bx4eeeQRJ4iEIXREQO4ksHz5cgQGBnaU1aXuU2y5VHMzWBKwDwIRERH24Qi96BECMTExPVIPK7E9AbmTwMaNG23viJ15wGFEO2sQukMCJEACJEACJOBcBCi2nKs9GQ0JkAAJkAAJkICdEaDYsrMGoTskQAIk4GwEduzYgby8PGcLi/GYICD3RFy5ciWuXr1q4q7rXqLYct22Z+QkQAIk0CME/vznPyMzM7NH6mIltiVQV1eHNWvW4Ny5c7Z1xM5q5wR5O2sQukMCViegqkLxVzUYGhwA7/Y+AVQVKL4ABI70Q7vZqspx4bK6yW0PD0/4DPTF4AGeTdfaPmhAVWkJNL6B8GvXmbYttHdH1cI3wEP800Dj8QMEBgxuN6727PIeCZAACXSGAHu2OkOLeUnACQiozm5FUGgg8qQ+aqjA5gg3bDhVLU9wals0ojbnKlGqzu5FUNAU5KjaD/rs314Q+YKaXoGB/vAd6IWIhIOQVttPKmwNDMLGvA4qad9Im3fP7nyiyS+dj4EIlL4G7oR1amzTFd4gARJwYQIUWy7c+AzdNQl4hy5FWVklxnmL+DWX8E4W4Ol1uzxB3p/2oUT0/SjJ4w7xy1d/prtm4qdHbx8gOBkXNBrIIYSamkqcPBCPrHWz8J+7CkyUMLw0ADFlZUgIk85YPoUuyxH+1KGupgZ1Gi3KMhOVSsLXP4YBlq+OFkmABEjAJAGKLZNYeJEE7IdAVe5BRIu1a+T6NW6jFiK9WNdfVJy6FBHRSxE1St5birwvDiIqKgHbkqJ1ed2icfBULnYtHaU7j1iK4+VqqEv+gReeWIsilQqp80ORJUKNDfXC2lefR0whUBgbiuhWIkmNU7sSGu26IWLpNghTjalG/O4thiTd4enpCW/vwRg7cy2y14dj37wtKG0Qt1XF2Lwwoql8Umqu6EeTSYWP1izG4XPCr1Lhf3QSdm1e2JhvFJLSi5Vc8kd7HKISNiApupFRxEIcbXTO3V364wlPb294Vh/FC5NXA5FbcShuPKAuwNJREUgt1vdxqXFwaQQS0kuVOtXlx7FU9Pop3AXXzQnRWJra7E+TYzwgARIggQ4IUGx1AIi3ScCWBBrK0+EbNgvX1qeh7EIJDsz+DlFBP8VxobfqVV8ia98m9PvFViQnR+AHty4hPX0dYnIfRU7RSayP3IdZ48Lw9zvXIf9kGuZkbcKiNwvRUH8JWYV5qIU3In69E8EiwMj1GZj78+WIFyfBS3YibuoIo7ALds3HuHlp2JqZjwsl2Rj3QQz8f7ar3aG40ZOfFjbOoUpdhc1jgxB7bhyyS8qQn5GM1XPD8EqjqKk4kY5KTQMaaoX/+1Zj3tEAnCzKR0qiL1ZHxSFXiLqOOKSvW4F/j89AUX4mllRux+SEQ2jSgjKShnIkhU8WwnIB8t9c1NirJXryCrNwuVYn++Qw6qW8LKQVfS8KlONV/wnY5LMeOSUlSHvsDGLX7cOXl2ulNSYSIAES6BQBiq1O4WJmEuhZAoUZb4gKF2DVvAj4eA7E1Jh4zBGSYe9RXe+LHL7bFrcIixdHor/iWjCydy/GmJFj8bNfLlDK/jEuEiFjIxG3NRyFRwqaBJIcLPQLG4NA8Xv69Im4x/+HuM9XDByOGIMQP8NhPRU+2bMPWLIOsx8bAU/fMPzyD2I4Ln0Pzug7hZS6W/zw6K1cuHX2A8SKHrP1Sb9CmK8PRkx8DgeEa5vi34OUNcZJ+h+HsSNDEP3K7xGOGggdBrM4LJqGkSGT8KvlkUDeZVxvMix6rF7xx+rCYKSVvY6QDubt+4r7qoIMrBMyNDslDmMCAhAZl4JkIURlHx4TCZAACXSWQHsPGXXWFvOTAAlYnEA/YXG7ECnbjSxHVkiZIv7rjxol+qcMky+8Gt/Vvv4Pim4qOevKIFXeMDgRh2KelRQQ9RopTdyhu6sxznPjLI5niUtZURi4yfDWnHbnczXU6dbZUdfrFNmKCf5YYVg80hu3GZ4rx83+G98yn8PQMZOEOpPR6FLBrljMEn4nZv4TkcP1V3X3xGyzdlIh6vWdXiKXTjq2k523SIAESKANAuzZagMML5OAPRDQ1FcINxJRKRYK1IoJ3lptHYpOZmLVjHvFdHahpe7o36abik4QosOs5GEgQnrLPi+D1OcehAjRFr41R9SvhUa+rpSIdZN+g3sNeokMLIjC1dgbL6RV+NO4v6/O1oEyjVJe2qgsykZm/AQYFDeosPVhVzlUn9qM0HnbsWBnPlZN8jM2LAApPVWGsVfqsuhiCabAMibW5bNevXopc9+6bIAFHYaAbGuZ5FxHpmYCFFvNLHhEAnZH4P7w2cKn1VibegoqjQoF6a8iaNxkvFdl0OXSRa+V/qtGM1/lnmkaXsz6/BOUVhvOeBqMx2YHIysmCekFFdCoyrE3LhCTJyfhO6Vu0T9U+G98dOoUTh0/jqNHDiIhaiBis4Ctv/85hgVPwRKRb1bCDhQLu9WlRzE/aAIm7zxjtudd4iAmwMeNixV1hOPxII3i23Hhn+6Vi2qve/G0EJGxW9JRXl2N3NRVygMCsrfLMyRSSNxCTHhhA3LLS3Fk86Kme2Y7zYxNBJKTkzF37tymcx44LwH5kMzhw4cRGhrqvEF2ITLjL6NdMMAiJEAC1iPgHbII+QcqETprHPQjeEu2ZiNh7GAUfmaq3hYDY0JMNCdxT4wpevTuIy756YYbPe/B7DlAzLxxqPQuwdql8WJoMgaBJ+pR+bYcoNTZG5/wT+ysFmtwhQ5tNBeJlPzdGCk+QUoH3SuubcL0cXoPRY9b5BIcOPkKZo6RCywMwNqSDFQGTkfQvhhd+TnrUZQcKYb6VErvUbO0a+F/Y22d5iDidhN9f7rp7FnKgwKNphp/heNkzTHM3JaM2Alz4b9dXA5egsQFwTim5PDDqis5uP7TMIT5rxDxzBGSzTXmbB09ehTBwcG46667FBKW+DF27FhLmKENByEwY8YMB/G059x0E1362p6rrns11dbWol+/fjh9+jTCwsLMMvbKK6+gqKhIUdpmFWAmqxLobHt0pc2tGoCtjDeIHiHVdbjfPgBiJQOLJ7VaDQ/xjVR++2oQdYm+HYiVHFoltVgu4rroDfMe4N00J6pVpjYvNEBVLeZvud+uLMfQZrb2bliDg2KzwTgmdTGSYt/CjD+swhhlUlw5Etz8cSmtDH+JHN6ehw5979atW4rQklut/PjHP8asWbPwzDPPWFR42QSQwW4I6opSVIpvHQFGD4GY8kqN4lOfoOz73rjv0XEIGGDiDWGqWDvXuKNBO3Cc/BaHEZ28gRmekxAQ60UNGGAdoSUJya5//X8lcm0qU0JLySfWqxrQJaElS7sLQSNi6I5atAYHxWYL8Sh4XN++GmE+Yt2tDUmIcvMXTydGYt545xVasoXkfBv55VQOtT700EPYsGED7r77bkycOBFbtmzBxYsXZTaHS4a7IZzZInYR2JjXYQzFqbHKkP306RPwzy+b+147LNhOBu5o0A4cJ79FseXkDczwSMAeCezevRsrV660R9cafRqOtXUXkJkyG3fc6IPpKRkoufI2xrrAsvNyYvNjjz2G1157DV9//bVFhFdMTIxYAy7ddu1tsBtC6NIylCV0PDJSf/kcEJ+tPNSxSNe92W3/XWFHg5s3byq9oufPn+82L2cyQLHlTK3JWEjAQQicOXMGeXkd9y7YNBxPP0yKXoS4VXFYFD3NIsNINo2nC5VbSnjl5OTg7NmzXfDA8kXKP9iENYeFkJKpjZ0NCnYtRKh8wmPdBIyK3oVrYonctnZQaLmTw7+vt53XFXY0uH79Ok6cOIFvv/1WQcwfOgL6kQPyIAG7JvD++++juLjYrn2kc+YTKCwsxIULF5CSkmJ+Iea0CwJjxozBj370I5w8eRKHDh3Cr3/9a8TGxkJOgu/fv78yz8u9xTj05cuXkZuba7K9pa1Ro0b1WGy1lz/ACbV8MrJxZwPfeLGzwW7ccS4NodPDUC0eFEma+hvsXHIC87Ace341FWeVHRTylB0UIv2vYkvkBPh/2Qc1aS827uSQjjnrxU4OQqBf+tt8/Hie6bxNa+K1s6PBiJY7Gtz5PdZGNu5oECl3NJiJCwd/g6gV6YhM/k2PcWNF3SNAsdU9fixtZQJywq5M//u//4vevbmspJVx95j577//XkzEb0B8vHj6kclhCUhRJecSygcsPvnkEyUOKcL69m1cXK0xsvr6emRlZeHjjz82ivXq1avKfLB3333X6Lp1T8QjuSKpixt3Ntim29mgwU/ubCAWwBU7G6w6I3ZhGOGLYHWI2I3BG9ti9okdFNKUHRTQ4K7soLBuutxB4UV4SWONOzl4i6drt0VEtZl3rKK2urmjgbAxRu5osMcH78i6mRyCAMWWQzST6zqpXyDvvffeM/sJVNel5TiRd/apVMeJzPk9lQIpLS0NBw4cwAcffKA8IT5nzhz85Cc/wdNPP61c6+zT4rag1tDOzgbyP0aN3il1Bzso1IulcfU7OXSUV9jkjgZ6sK71m2LLtdqb0ZIACZBApwmYElhPPfWUIromTZoEDw8PyGVaHDHJnQ1mNm7jVFV8HAXf+xnvbCDWopM7KFT8OgfHFo0R25WLVF2Kjz7/XtlB4Utx2rSTQwd5uaOBI/6FWMZnTpC3DEdaIQESIAGnIiAF1p49e5QeK19fXyxduhTyt+zVkpOf33jjDUybNk0RWo4YuLfZOxt0tIOCYfTt5OWOBoagXO6YPVsu1+QMmARIgATaJnDw4EH89a9/bRoibNmD1XZJ+73jruyaoNudoGnnT/eAdnY2EDstGITT3g4KBQb55GHbeb+0ux0N5JODH374oTJvruU8uxZh8bSbBCi2ugmQxUmABEjAWQjIB1I2btyIBx980GiI0NHj8xz5olgv60VdGIuPQb8rp2fANKRqNdhmYmeDEIN8cPfDi68dw8+SWu+gYJRP1tBm3jGiLi1S24M5frHYcH6B2C2ieUeDVTK/3NEg7j08k67F2qYdDfbhkv+g9qx1eO/YsWOQW+vIYeAnnngCcu6dPKfw6hBdpzNQbHUaGQuQAAl0l4CXlxfki8m+CMgHUj799FP7csrq3uh2NjCnGk+xg4K5u2V1Jq9R3cqOBkZX5BYPuh0Nth9D/PoInFmxGmLhB5zs5o4GUlzLNtdoNJBPhMoHkeTaat0RXlK4yZfclYKpmQDFVjMLHpEACfQQAbl6vFwOgIkESMAcArodDSYdSkdO6VVlR4M/PjFZLLRrTtn280hxJZMUXvqldloKr+eeew5PPvmkWT1ecomeyspKZc219mt2rbsUW67V3oyWBOyCgP7br104QydIwBEINO5oMKkHfO2u8JKL2zIZE6DYMubBMxIgARIggR4iUFNTA7mHHncS6CHgLaqRW2ZpxTyy9pKh8JL7W8peL9kb9sMf/hD333+/8rRqe+Vb3ps6dSoGDx7c8rLTn1NsOX0TM0ASsD8CcvV4+br99tvtzzl61GMEysvL8e9//5s7CfQYceOK5Mr/+qFD4zumz6Qw04szKdTkS79zgGEJmUc/PGl4/bvvvsO6deuwbNkyw8sucUyx5RLNzCBJwL4IrFmzBnJ/xP3799uXY/SmRwnI3hG55c/hw4d7tF5WpiMgJ8RHRUXh5s2bHSKRc7HkPEs/Pz/8/Oc/x1133YXf/va3+Oabbzosq8/w8MMPN4k1/TVX+U2x5SotzThJwI4IXLt2zWFXHLcjjHSFBKxKQC+whg4dirlz5+LZZ5/FQw89pNQphRqT+QQotsxnxZwkQAIkQAIk4NQE2hNYTh24lYOj2LIyYJonARIgARIgAXslIOdsUWBZv3UotqzPmDWQAAmQAAmQgN0RGDZsGIKCgpQnCg2HCO3OUSdwiGLLCRqRIZAACZAACZBAZwmEhITgzBn95kWdLc38nSFAsdUZWsxLAiRgEQL+/v4mHw23iHEaIQESIAE7I0CxZWcN4gruFBQUYP78+WaFKvfsYnI+Ai+//LLzBcWISIAESKANAhRbbYDhZesQkBucyoXtbty4YVSBXEX6448/xs9+9jOj6/Lkl7/8JQIDA1td5wUSIAESIAEScAQCFFuO0EpO5GNERATkq2WSvV1LlizB3r17W97iuT0RUFWg+AIQONIP7qoqFH9Vg6HBAfBu95NEjeJTn6Ds+96479FxYvPcdjN3Otrq8mJ8UVKGWo0HBvsHInjkcHh22ophARVKRZA+w0dicAtDqopSVMIXAX7ehgXMP1YLZuWXjfN7iFPh+5DAAFgYjXE9TnYme73lYpzchcDJGtZJw+nlpHExLAcjICdqfvjhhw7mteu5qzq7Vzy9NAU5KkB1diuCQgORp26fQ3FqLILGTcb06RPwzy87yNy+KeO7DeXYHO2Ggf5BmDB5urA/GWFB/vAalYBi4V+Xk+oMIsUTWlvzq4GGCmyOcMOGU+JYpDNbAhG4Ma/rpgt3Kk9/ySfAml6B8jgQf8rR1dFl4y5QUAqsjIwMzJs3D0OGDMHixYtdIGqG6AwEKLacoRUZAwn0FAGPO0RNvpCdMd6hS1FWVolxHXTy1F8+B8RnK9t0LBrTQWaz41Dj4Cv+iN0XjJSTZdA07tl2pSQDkYXrELTqCBrMttUio7sH5KB1f6XH6RLeyQI8vXR7OIYuLUNZQliLAuafeocuQ53YfLmurk68NNBUnsQcpXg8ng0dYL4hF8rZUmA99dRTqKqqQnJyMv74xz+6EAmG6sgEKLYcufXoOwnYkIC65B944Ym1KFR6kdQ4tStBecJQbkAbsXQbykUnVsGuhQiNzQLWTcCo6F2QWatyDyJa5JH53EYtRHqxrkdHXXpQ7NO2FAkLI5R7uwpUbeZtKP8nZm0SGi7tfUSPHQ79wOSAgGnYnJGIOUK3yEcrikX90bsKmigVpy7FqIWpih+AaZ9l5hrxckMtUueHIkscx4Z6QfpT/sEmrDksxKNI6vLjWCp6vZQ4ohKwOSEaS1OLlXtQFWNzYxzyflJqrk78iX0APb294enpKV4q7F0yDvsQjswLSRgphizVxakYNSoJpXqlqC7AQsFIVC1rNMlYV2EVDiZFN/KPQELSQkTo42zLF11Bu/xpSmBdunRJEViVlZV49913lf35+vXrZ5f+0ykSaEmAYqslEZ7bhMD169fx0Ucf2aRuVto1Ag31l5BVmIc6Ubxg13yMm5eGrZn5uFCSjXEfxMD/Z7sweOpvsHNJMLBkJ/b891R4lKfDN2wWrq1PQ9mFEhyY/R2ign6K40JvNdReQnr6Jqz7LgJbRa/F/dcz28yrvlQmag3HM1OGt3J++LRVSF01TZm3Vas6gbxKKbt0qV6Vh8ITujlTbfl8rTGvFn0R8eudEN4jcn0Gpo7wRO3lD3BCsVeOV/0nYJPPeuSUlCDtsTOIXbcPX16uFbmrsHlsEGLPjUN2SRnyM5Kxem4YXkkvbbSs+3Vq8wuYtw9IPvkWJvnp5GJDvUps0H0MVU2jrRqcKzzXLmOpw05teBazVleIXr4iFGXORtrq7cg6p0hbs3wxcsxGJx0JrPT0dEVg3XGH7F1lIgHHIqD/QuhYXtNbpyNw7NgxZZNTlUr5Cu908TlzQB6in+iTPUI1LEnD7MdGCNXkjl/+IRHrpu9BecqLGDPCF8HqEIwRk+oLtr0hUCzAqnkR8HFvwNSYeMxZPQ57j5Zi9P2SUjCyd6/CeNEzVbAtqp28vWVmUZfuF9S5iPYKE71E+rQAOTV/ESe++gsGv2XZtn3+ovb3TXn9wsYoQ4rTp0+En3gK4GKjPVVBBtZJX1PiIEdGx8SlIHmPD94RJdXFHyC2EFi/7VcI8/VBg99zOLAgFrPi38OqyMWQg4UVR5MwLjYdc3bmY/HYwU316Q/kCKZxatvfQtV/IH1FFhYcKFN6+YCReHtrBoL+BFw3wxfjenr2rKGhAd9++60yB+vvf/+7Mrz6+OOPKz1YjzzyCPr27as4JD8XTH02DBo0yGiCvN5eR1H4+fmhV6/mvoba2lpUVwvF307y8BAPMYh5YobpypUris+G11oee4uezJYC8eLFi8rk/pZ5Dc/tPTbZ06gVw/dM5hGg2DKPE3NZmYDcn4tvXCtDtpb5G2dxPEsYz4rCQDG015zmKHO7mvuV5B057LNdiJDtzdnEUWTF94Aitnzh1fSp1E7eEfWiVCXq9GLLMxhxmULsafqi/ux+zIr9zsh+yxM3dfs+N+UXE7LlkGK95rr4Kcb5jFIh6vX1i+uN8g+yd0qmFRP8sUI5avwR6a0MdzaUpmPo5NVCnB7AjhdDDHO0fdwOY/drF3FSlIy426ep/NDHJgEx9dB04EtTARsdyOHA0tJS5OfnY+HChfjtb38LKYROnz6NkSNHdujVCy+8gF27djXle+211/Bf//VfTedtHezevRvPP/980225Vc3777/fdN7WQVlZGYYPH67clp9Z8vjaNX1fqOlS/mIB36+++qrppoxNCsmOkiPEJofImcwj0PSxZl525iIBEiCBFgT63IMQMdZW8escHFs0RtfZVF2Kjz7/HvcKffKlQXZNfYU4S0SldhUGS6HirlsWonbwvUDtaYOcYs5VO3m9B9aJQcRCLPrTUZxZJYSFEEIhkyIhpUuD3znxc78yZ0v2EBXeMJZ74hK0nu343EfmaJE8jD8qdWfBTQKrRW7l9ECZBjOH63JWFR9Hwfd+8BRzsF4KFD124cmofG1mK/kmZJ0o64Om6iq/Qpa01g7jAN97ECGynD8vZaHsNwMu5B4VnYTTlWP5w6QvTXdtd/Dkk0/i6NGjuP/++5VlX6RwkmvxSfFTWFiobJDcnnd33nmn0W25fMwzzzzT7hc3KRD0gklf+G9/+5sy6V5/bup3nz59cPfddzfdkj1jJWIIuSOx1bJX6+GHHxYPlpRB9sK1l+w9NjkaERsb214IvGdIQPQmOEwSf9Ra4btWfDMw2+fly5drZ8yYYXZ+ZrQNgcOHD2vFkIFtKmetZhOoyd8q3oPh2pwarVZ/fFIcZycGi+uR2rT8C9q6mjLtzgVQzovEY4I5yeHa4PU5Sh26MtAuSTmpramr0eanxSvv6cSTlU32pG2Z2ssr7xcdWKKUDV+SrM3OL9KWleRrM1IStUL3ietztPl1Wm3+zkjFj8ySSm1lUZo2XN4L36qVVbTp85UcJV9yzhXhhO54yU7hryjTHMsFbaK0Fblem1NWos1InqP4Epks4tSUaJfIe3O2aouu1GmvlGRqI+X5gre0bypcoF2QkqnNOXlSm52drXtlZmtLrmi0dSUpip3EtHztlSsl2q1zRDnBVTJp01+FsS5OMWdLW5S9U1efjLNNX9K0ophFU3c/n8W8Ta0YStTOmTNHK4betOIhAq0QTto333xTK20z2ReBrnxmh4WFaTdu3GhfgfSQN/IbgMOk7r6ZHSZQF3S0K29cF8Rk85DrinY2/eevO9aJGq3mgnbnknBFKMgvRFIgpOQLsSJSvoHYUs4PJBrkE8Jra7byH79OXOmEhVJQlm0jr/5+UcZWbWSwrK/5NSd+qza/slFKCOEk5uc33g/WLpE+NoqtNn3WFGkXCHuK2NJWNgoeaOccKDGORdiOD9fZDo6cowi0cCm2RKorydCKJR2a/ZqzXlukrtFujTS4ZnhfHK8/KXnVadMSpXDS5QufoxNRigBth7FQhdqM9TrBJ8VwZLgo3xinSV+EELV0suTns154RUdHU3hZuqEsZK8rn9kUWxaCb20zlnwzW9tX2u8cga68cTtXA3P3BAGxhpTokanpuNdEI3p8rlwRvVtmeGVGXn29dSa7azTampq269KXNVm00T2xLpZxTHVF2sQFiUqPky5LmTZeCKQFaWUGAYl6ZYxmBWlQTBxqJMc2yrX2t06bkbhAm5zZXPfJ9aKnMThZq5O70nbXfTH2rO0za30+tye8xMT2th3iHasS6MpntiuLrebHMcRXKSYSIAES6A4BuYbUgAG6ieDt2fl36df48ssv4d1yzrmpQu6ewuaAdvPq6/U0nlrVaM0d3t5tl9eXNVm00YJcF8vovji/vn01wnzEmlYbkhDl5i+eTozEvPHDDSIQ9Uq/zQrSoJg4dJcc2yjX2l9PsUjFCcRO9kd0QhISokdh3IpCJP4hqnEGl7TddV+MPev5MzlXKioqCikpKcq8Kjm/Sm7Rs2DBAmWLr573yPI1ym2gSivkgxVyq6hig6U/LF8XLdqGAMWWbbizVhJwaQI7duzA6tWrHZjBcKytu4DMlNm440YfTE/JQMmVtzFWNz+9x+MavyoHRdkH8OgdfXDHo8uRXVSJVdMMhV+Pu2SVClsKr02bjB5/tUqdPWH07A6xDdSOM0JrGWwV1RMVs44eI2D0Za3HamVFJEACJODoBDz9MCl6EeSzkLZPnhg5fqZ42d6TnvJACi+nSf3DxVp04tlZ8T9yoAhK2SrKaYJjIJIAe7b4d2AXBEaPHo1ly5bZhS90wvoE5OP9zz33nPUrYg0kYGECypZKbvotlIyNy+2gohI2IElskK5s4xSxEEflvlUitb91VLMduYAHk/MRoNhyvjZ1yIiGDh2KxETxMD2TSxCIiIiAeNLMJWJlkE5GwMMbgZGD0NvEuFC96kukr1uBf4/PQFF+JpZUbsfkhENiV0uxjFw7W0c5GSGGY4KAiT8XE7l4iQRIgARIgARIAJ4BkUhLEyuntZWCk7Ft0TSIXZzwq+WR2PT7y5D7D7S9dZRykz+cnAB7tpy8gRkeCZAACZBADxGoF4OAUaMUoSVrHDpGzOgT+2SyV6OH+NtxNRRbdtw4ruSa3Jh1zZo1rhSyS8cqVk7H/v37Lcbg6tWr2LNnD9auXWsxmzREAp0lIDeGCr6jf5vFTG0d1WZm3nAqAhRbTtWcjhvM559/jnXr1jluAPS8UwTkBsR79+7tVJmWmfUCa9q0afjBD34AuXFvUlJSy2w8JwGLEmioOIXNG1LROO/dbNse3mKj8NXrcLS0ClXF6YiNyWo9stj+dolm18WM9keAvZv21yb0iARIoA0CUmClpaVh3759yMzMhNwMWG7oK5bKbqMEL5OAZQmoL32G2BV/xiMvRaPlSmZi8YbWSWzWKVPIU6uw5PdhmBzoK86CxYKs4cjKU26hqZxnX9ynu8SfTkaAYsvJGpThkICzEWhPYN28edPZwmU8dk7AO2SxEPeLTXoZsvgYxNKkTUnJq78wYAxeO6NBkkqsFO+u29HgtcachuX+wi8OTfyc6YBiy5lak7GQgJMQ0Aus1NRUHD161KgHiwLLSRrZJcPQbR3lkqG7eNAUWy7+B8DwScCaBLZv345PP/20VRWfffYZvv/+e8yfP9/o3uXLl/Hhhx9CJb/9i6QfHjRXYGk0mlY2jSrgidUISPYyiQ2prVYHDZOAoxKg2HLUlqPfJOAABP7yl7/g1q1bCA5unLjS6HNISIgipG7cuGEUxfnz51FTo1tDW87H0osto0wdnLS02UF23rYQATl3TqautJmFXKCZHiYg21xuEG5ukl+mXDVRbLlqyzNuEughAnJbnuXLl5tV23vvvYfZs2ejvLwchw4dghxGPH78OG677TazJsJ7eHh0+ylHsxxlplYEamtr8bt/zLIAAEAASURBVOabb8LbWy7nyeTsBIYNG4a77roL8fHxRqFKsX3p0iX0798f8v1omOQWRoGBgYaXXOaYYstlmpqBkoDjEJBLOSxYsEB5yW/DXRFejhMtPSUBxyMge6e/+uqrVo5L0d2vXz8cPnwYYWFhre676gWus+WqLW9nccshI/mth4kEWhLQC6+srCxUVlbi9ddfx4QJE5RJ8/KbM/9uWhLjOQnYjoD8LJeJ70vjNqDYMubBMxsRmDhxotJ7YaPqWa2DEJDCS06qNyW89B/yDhIK3SQBpyTg6emp9GqFhoY6ZXxdDYrDiF0lx3IWJeDl5YUpU6ZY1CaNOTcBvfCS4ksONb7zzjuQE+yZSIAEbEtgxowZtnXADmun2LLDRqFLJEACnSOgF16dK8XcJEACJNAzBDiM2DOcWQsJkAAJkAAJkICLEqDYctGGt7ewv/jiC8gNhZlIgARIgAQcl4BcgPjHP/4xh/RbNCHFVgsgPLUNAbmu0scff2ybylkrCZAACZCARQhcv34dJ06cwLfffmsRe85ihGLLWVqScZAACZAACZAACdglAYotu2wWOkUCJEACJEACJOAsBCi2nKUlGQcJkAAJkAAJkIBdEqDYsstmoVMkQAIkQAIkQALOQoBiy1laknGQAAmQAAmQAAnYJQGKLbtsFjpFAiRAAiRAAiTgLAQotpylJRkHCZAACZAACZCAXRKg2LLLZnE9p+TeiPLFRAIkQAIk4LgEPDw8IF9yQ2qmZgLcG7GZBY9sSCAiIgJnz561oQesmgRIgARIoLsEevfujcrKSvTv37+7ppyqPHu2nKo5HTsYvjkdu/3oPQmQAAlIAvwsb/13QLHVmgmvkAAJkAAJkAAJkIDFCFBsWQwlDXWXwLVr17prguVJgARIgARsTICf5a0bgGKrNRNesQGBjz76CAEBATaomVWSAAmQAAlYikB9fT0GDRqEoqIiS5l0CjsUW07RjI4fhPwmVFtb6/iBMAISIAEScGECGo0GN27c4Od5i78Biq0WQHhKAiRAAiRAAiRAApYkQLFlSZq0RQIkQAIkQAIkQAItCFBstQDCUxIgARIgARIgARKwJAGKLUvSpC0SIAESIAESIAESaEGAYqsFEJ6SAAmQAAmQAAmQgCUJUGxZkiZtkQAJkAAJkAAJkEALAhRbLYDwlARIgARIgARIgAQsSYBiy5I0aavLBIYNG4ZHHnmky+VZkARIgARIwPYE+vTpg7CwMAwZMsT2ztiRB+525AtdcWECISEh+PDDD12YAEMnARIgAccn4O7ujtOnTzt+IBaOgD1bFgZKcyRAAiRAAiRAAiRgSIBiy5AGj0mABEiABEiABEjAwgQotiwMlOa6RuD69euQm1EzkQAJ2JbA0aNHcfHiRds6wdodmkBmZiZu3rzp0DFY2nmKLUsTpb0uETh27BiefPLJLpVlIRIgAcsQuHXrFl5++WXcfffdmDhxIrZs2ULhZRm0LmNFrVZjypQpyMvLc5mYzQmUYsscSsxjdQLyQ16r1Vq9HlZAAiTQNoFevXqhqKgIx48fx0MPPYQNGzZQeLWNi3dMEJCf5TLx89wYDsWWMQ+ekQAJkIBLE3Bzc8Njjz2G1157DV9//TWFl0v/NTB4SxGg2LIUSdohARIgAScjQOHlZA3KcGxGgOts2Qw9KyYBEmhJoL6+Hg0NDUhJSWl5y+j8Rz/6EUaNGtV07ZtvvjHrAYupU6di8ODBTeVycnJQXFzcdG7qoHfv3njmmWdw2223Nd1+7733UF1d3XRu6uCuu+7CpEmTmm7Jh0DeeeedDicO23tsY8aMwYwZM+Dl5YUDBw4oQ42xsbF4+OGHlVg1Gk1TzDwgARLQEaDY4l8CCZCA3RCoqKiAFFzx8fHt+jR37lysW7euKc8///lP/O53v2t3nojspfH29kZUVFRTuT//+c84cuRI07mpA7kithxWk5PGZZJzUhISEnDlyhVT2ZuuBQYGGomtkpISpZwUk+0lR4lNPtQiBe/o0aOVifSffvqpEtaXX36JcePGtRci75GAyxGg2HK5JmfAJGC/BPz9/ZUeE9lT1Zk0b948yFdn0/bt2ztbBHISeX5+fqfLPfjgg/jqq686Xc7eYrt69SrS0tLwk5/8BB988AH69euHp556Cr/97W/x9NNP44EHHuh0jCxAAs5OgGLL2VuY8ZEACZBANwnoBZYcNjQUWFJ0yaFSDw8P1NbWdrMWFicB5yVAseW8bcvISIAESKDLBMwRWF02zoIk4GIEKLZcrMHtNVw572PZsmX26h79IgGXIXDw4EH89a9/bbMHy2VAMNAuEZAPTixfvhxyziJTMwGKrWYWPLIhgaFDhyIxMdGGHrBqEiABOfl/48aNkPPLDIcISYYEzCUgH0SRf0NMxgQotox58IwESIAEXJaAnPyvf6rQZSEwcBKwAgEuamoFqDRJAiRAAiRAAiRAAnoCFFt6EvxtUwIXL17EmjVrbOoDKycBEiABEugeAbkn4sqVKyEfsGBqJkCx1cyCRzYk8PnnnxstUmlDV1g1CZAACZBAFwnU1dUpX5zPnTvXRQvOWYxiyznblVGRAAmQAAmQAAnYCQGKLTtpCLpBAiRAAiRAAiTgnAQotpyzXRkVCZAACZAACZCAnRCg2LKThqAbJEACJEACJEACzkmAYss525VRkQAJkAAJkAAJ2AkBii07aQi6QQIkQAIkQAIk4JwEKLacs10ZFQmQAAmQAAmQgJ0QoNiyk4ZwdTfkNiFyTy0mEiABEiABxyUgP8tl4ue5cRtyb0RjHjyzEYGJEyfi0KFDNqqd1VqTwFtvvYXi4mKzqvj666/NysdMJEAC9knA09MThw8fRmhoqH06aCOvKLZsBJ7VGhPw8vLClClTjC/yzOEJvPjiizh58iRu3LhhVixDhgzBkiVLzMrLTCRAAvZJYMaMGfbpmA29otiyIXxWTQLOTuCll16CfDGRAAmQgCsT4JwtV259xk4CJEACJEACJGB1AhRbVkfMCswh8MUXX2DatGnmZGUeJyCwe/durFy50gkiYQgkQAKGBG7evIkf//jHOH/+vOFllz+m2HL5PwH7AFBeXo6PP/7YPpyhF1YncObMGeTl5Vm9HlZAAiTQswSuX7+OEydO4Ntvv+3Ziu28NootO28gukcCJEACJEACJODYBDhB3rHbj95bmICqqhwXLqsNrHrAAxpoPH6AwIDBsOQbpuLUUXx912MYO9zToD7jQ1V1Fa43AO7uombxG+4NaGhwx4DBAzrti1rYutZkS9hxvx2DB3ijKvcoivs/gvEB3saV84wESIAESMAiBCz5f4dFHKIRErAlgbM7n0DYikITLqzHFW0cBpi406VLFUcwdNx0pF3QtFO8Gq8P9MWKVjmCkV1zBuM7o40aihE7MAjbjWzpYnKvO4EJYftRovkLAviJYESIJyRAAiRgCQIcRrQERdpwGgKhy3JQU1OHupoa1Gm0KMtMVGILX/+Y5YSW6KJK/910IDEbkX7tqZsBeKmyEhcuVKKy8gqulGUiXHqzIBGjOyO0ZJnqC4rQOlBUiZorV4S9C6i8sliJacD4pdgZvh2/2WvewqPSHBMJkAAJkID5BCi2zGfFnC5AwN3dE97envD09oZn9VG8MHk1ELkVh+LGA+oCLB0VgdRiVSMJNQ4ujUBCeqlyri4/jqURbso2FW5RCdicEI2lqSYETNVHiBJdTCnRYU1Eq3IPIlpsVyS3uHAbtRDpxdXKPe/Bg+HnNxiDxbDhv9/8H2RhAfKTZ8K01lLj1K4EnQ1hJ2LpNpQ3joiqvj4j7C3ACB/gypUauPfzE0OI+uFLb0yNi0f6vD+iVA5VMpEACZAACViUAMWWRXHSmNMQaChHUvhknbh5c1Fjr5YGeYVZuFyrVyQNuJSXhbSi70XY5XjVfwI2+axHTkkJ0h47g9h1+/Dl5dpWSEo/2CmuJSIiQCd2GsrT4Rs2C9fWp6HsQgkOzP4OUUE/xXGd3lLKN1SkY9yKLMRn/A4heo3UwnLBrvkYNy8NWzPzcaEkG+M+iIH/z3ZBSsOvCj4VP7cjbKgv/AP9MdDLDZuPVzRZ8Ht0OoLF/ffyDSptussDEiABEiCB7hCg2OoOPZZ1UgKix+oVf6wuDEZa2ettiht98L5C/KgKMrBOyJXslDiMCQhAZFwKkoOBGn0mg9+1KiFygn2beqcKM94Qdxdg1bwI+HgOxNSYeMwRMm/vUV2PmSx6cke8+JmI/5zmJ09FaoCquhrVjS/V9Wp8smcfsGQdZj82Ap6+YfjlH8QQaPoeFKoaUFV5DcFzklF0RUz2r7uAlCXBiJ3wCor1unFAAGYLq4aPBijV8AcJkAAJkEC3CVBsdRshDViCgNwbUb7sIRXsisWsTULaZP4TkcON51SJUbh2UiHq9eJF5OrdVs56obV+MbpJbAH9RE7R6+Trg4EDB8LHdxyEbMJ3FbLHTKSGUuxdXYg5Kc9CL7WgysFYkVfmV8qsScPxLJF3U5TotRJ2fLwQOF0MgYoS7uLfpLg0nEldjJEDxJmnH2b/Z4K4tw+5+nFG0Xc3LBw4cuJLcd36yZ7a2/rRsgYScB0CHh7iCW7xkhtSMzUTMP6fpPk6j0igRwlERETg7NmzPVqnqcqqT21G6LztWLAzH6smNUkbXVYhpJSeKg+Dt02l7pbuSnDbAsuwMqHCCv+cB1XcWEVwaeorxN1EVGpXYbAUa+5qFJ/6BLWD71VKqcWQoHyKMCMiUDlXfniH4v2SIqgbH2b0udMLew8BFb/OwbFFY5RVIlBdio8+/x4BniqkJyzCqYeSsHZmgM6Gpl78DsY9A/UfiJU4lwVMW6erU5fJej/l6vH19dIHJhIgAWci0Lt3b/EATiX69+/vTGF1Oxb2bHUbIQ1YioDN35xiAnzcuFgRTjgeD9Lg1PHjON70ykW11714WgwNxm5JR7kYvstNXYUYsUqE7O3yDIkUcqkQE17YIHqLSnFk86Kmey359PWWIq5ZaNwfLgfwVmNt6imoNCoUpL+KoHGT8V6Vrpus4ouT4n4iQoyeXPTE8ICRGDlS9/Lrfw8emx2MrJgkpBdUQKMqx964QEyenIRv4Yne6n1YN2sVjpZWQ1VVgLUx84TN2QjQr2WhvgRZi6ehkBTn1krym2/fvn2tZZ52SYAEbEjA5p/lNoy9raoNvqK3lYXXScBVCGigm86ehVnjmp8U1EUfjpM1xzBzW7KY6zQX/rKrKXgJEhcE45iSwQ+rruTg+k/DEOa/AsGRc4RkMz1ny2/sZNG1NQ8nqhZj2mDAO2QR8g9UInTWOIjRSyUt2ZqNhLHipki1l74T+u8hg2FH5XKrH+MT/omd1dGICh3aeC8SKfm7MVIsiDpyVT7WfxmKyYFygFKk8HjkVCY0DUuqCk8gS3j8+/tNP+eoK8SfJEACJEACXSFAsdUVaixjFQLXrl1Dv35y/pKNkucYpGq1SG2v+vGLodUsQLWYdO4tVl+Xb6BVMr+6GElx7+GZdC3WKnqlHAlu+3DJf1Ara54BM8W6VvOw4e0CTFsUotwPmblK2H1F2L0O99sHQKw+0ZRCFqVBu6jptO0Ddz+8+Nox/CxJpaw6r/dPKTAgBHFpWixWVYt7YgV64XtzUuMff4xF8PqTGGN4uTmDxY8aGuRK+A24/fbbLW6bBkmABGxLwOaf5bYN32TtvUxe5UUS6GECH330EQLEU3wOkcRaXFKsGH1TEZNBr29fjTAfse7WhiREufmLpxMjMW/8cBMheeNnW3eKIb9Y5OqX7JK5FLvGQstE4Q4vyTXCWvnXWMrTe0ALoSV0YukhzNoXjjdeGtuhbUtlWLNmDZ5//nlLmaMdEiABOyEg52IOGjQIRUVFduKRfbhBsWUf7eDyXshvQrW1rdekchwww7FWLKmQmTIbd9zog+kpGSi58jbG6udEtQjEc+SLyEl5WqwOb6i2WmTqodPKsnocyHkLY3uoV0uG5fjt3UONw2pIwMEIaDQa3Lhxw8E/zy0P3ejLueXN0yIJ2IaAfMNnZmbiww8/xKpVq8Sq8D2gJMSSCpOiF2GSmSGPiV6MMWbmtWa24ZNehKn+N2vWSdskQAIk4EoE2LPlSq3t5LFKgZWRkYF58+ZhyJAheOqpp1AiVnO/deuWk0fO8EiABEiABOyZAHu27Ll16FuHBPQ9WAcOHMDf//53pet66tSpSE5ORmRkJO64444ObTADCZAACZAACViTAMWWNenStlUIUGBZBSuNkgAJkAAJWIkAxZaVwNKsZQlQYFmWJ62RAAmQAAn0HAGKrZ5jzZoEgezsbOzZs6cVi6+//lp5gmX+/PlG97Ri3av09HTU1dUpL3lTTnbXDxHKJSPki8mxCHz22Wf4/vvv0bK9HSsKemtIQH4hkkk+acpEAiRgTIBiy5gHz6xM4N1338WRI0cg90I0TL6+vnj22WcVwWV4Xa7ZcunSJdx2223Ky8/PD8OHD4e7WBVdPl7M5JgE5IKm8sEFtqFjtp8pr2WbyiS/IDGRAAkYE6DYMubBsx4gMHr0aOzdu9esmuTaW2+99ZbSI1ZVVaUcS8GWm5uLJ554QhFoM2bM4D57ZtG0n0w7duxQnhRdv369/ThFT7pFQL5X33zzzZ5ZZqVbnrKwNQn06dMHYWFhyhPh1qzH0WxTbDlai7mov3In+aioKOUle0Nk75h8AlEOQ8lv1FJ4zZo1C08++SSFlwP8jXD40AEaiS6SQBcIyFGH06dPd6GkcxfhOlvO3b5OGZ385iSFV0pKCmRv19/+9jdlj70FCxZg8ODBmDlzJvbv388VjJ2y9RkUCZAACTgeAYotx2szemxAoCPhNXv2bNTU1BiU4CEJkAAJkAAJ9CwBiq2e5c3arEjAlPC68847rVgjTXeVwDfffIMzZ850tTjLkQAJ2DEBuVXazZs37djDnneNYqvnmbPGHiCgF15yJXkfH58eqJFVdIbAli1bsGLFis4UYV4SIAEHIKBWqzFlyhTk5eU5gLc95yLFVs+xZk0kQAKNBOSyD1wigH8OJOB8BPR70fL9bdy2FFvGPHhGAiRAAiRAAiRAAhYlQLFlUZw0RgIkQAIkQAIkQALGBCi2jHnwjARIgARIgARIgAQsSoCLmloUJ42ZQ0BOoDx//rw5WZv2QzQrMzORAAmQAAmQgB0SoNiyw0ZxZpe8vLzw4YcfYtiwYZ0K09PTs1P5mZkESIAESIAE7IUAxZa9tISL+LFy5Uo8//zzrZ5EO3bsGBYvXoz/+7//a0VCLuNw9913t7rOCyRAAiRAAiTgCAQothyhlZzIRw8PD9x7772tIiouLkavXr0QEBDQ6h4vkAAJkAAJkIAjE6DYcuTWcyLfR48ejWXLljlRRAylPQJy43DZ5kwkQALORUBOFVm+fDkCAwOdK7BuRkOx1U2ALG4ZAkOHDkViYqJljNGK3ROIiIiwex/pIAmQQOcJuLm5YePGjZ0v6OQluPSDkzcwwyMBEiABEiABErAtAYot2/Jn7SRAAiRAAiRAAk5OgGLLyRvYUcK7ePEi1qxZ4yju0s9uEsjOzsb+/fu7aYXFSYAE7I2A3BNRPnV+9epVe3PNpv5QbNkUPyvXE/j888+xbt06/Sl/OzmBd999F3v37nXyKBkeCbgegbq6OuWL87lz51wv+HYipthqBw5vkQAJkAAJkAAJkEB3CVBsdZcgy5MACZAACZAACZBAOwQottqBw1skQAIkQAIkQAIk0F0CXGeruwRZ3vEJqKtQXH7ZOA4PcarxwJDAAAyw6LtEhVPpn2H4E4+grvACPEcEws/bdAUNqgoUfnUR6HsXggP8YDqXsdumzqpKi/F1bT0GDbsPwwfIPSaFD0c+wz0TJ8GPW06aQsZrJEACJGBRAuzZsihOGnNEAqrCnQgKCjJ+BcrzQPwpp9qiIRWnzsW4qBx4qs8gMjQIO86oTNqvOL4ZHj5DERoahtDAofCI2IBStcms7VysRurSUfAVsYSFhsJ/oBeSjpSL/J6oPDQZQ1892k5Z3iIBEiABErAUAYotS5GkHYcl4B26DHU1NZBP0dTVaaCpPIk5SjTxeDZ0gOXiUhcgbm46dhYtRn93D/gKy75et5uwr8I/VsUCS9JQIx6j1lzIRHjWCqTmVJnI2/al8vQ4zN0EZJTViY2/NciIB1ZP/yuqRB9Z5IZMYN1kpFc0tG2Ad0iABEiABCxCgGLLIhhpxKEJuLvD09sbnp6e4qXC3iXjsA/hyLyQhJFimE1dnIpRo5JQqtclQjQtHLUQBUqnVBUOJkVDblHh5haBhKSFiFiYKgbqWqfiQxuQjkRMlUZF8hGvjF0JiFDKumHh5qPQdV41QFUJBN85FN4ij7tfIOQugue/qxE/TaTqXGyIjmj0YRSSUnMhLODD17YjfOvfMG24B6qr1ZgYX4myshgo8nHAY0iJBKK2fGTCIC+RAAmQAAlYkgDFliVp0laXCfTq1UsRC102YKGCpza/gHn7gOSTb2GSn26WVEO9CoWFx1DVNIynwbnCc6gTdZ7a8Cxmra5AyskiFGXORtrq7cg6Z0pqqZC1dh+C1z8Ov0Zf+4nf6ZvyMF+Uzc9IxvbYyYg9WCquDsCMdUtQuCIM0QlJWBrhj02ir+1XUwMaSxr+qsKGH4dhRd5oZJeU4WRKFFbPDcPW/7umZKr8fAtGuXlg4EAfePksQRH6Nc798kREjOjqWncY5XoRaWjWysf20t5WDpPmScDlCMj3tkzyCyhTM4GuzrlttsAjErAAgYkTJ+LQoUMWsNR1ExVHkzAuNh1zduZj8djBrQzJOfOGyQ3lSFuRhQUHyhA9dri4NRJvb81A0J8Mc+mPVagsBH4x8QH9BUg5FJ+RKspK+TUSOcnvIGz1e/jDzBdxLi9Pyed7ex9dFxjy8NUFFYKHNuC6Xhy5344B13OxQtg9ULYR44eLt3PAfyMb96H+5lfYmQUUZp0QQrAMkQFXsWtJKKb7D0eZdi2ktwP87hE/9+OiEJHDZRdaD6aYmBiuMN2DvFkVCfQUATlCcPjwYTHfNLSnqnSIeii2HKKZnN9JLy8vTJkyxWaBNpSmY+jk1WKe1AHseDHELD+01y7ipMgZcbccENSloY9NAmLq9afNvxtq8G9x9mgLxXZ73+bHAT16y+ziR9UJTF+dha05V7BojBz0WyyGJr0QFZeKjSUxeEWIK11aj69zZPlI3O+rfyt7Ynz0i+JaNc6FA3nT3mgUgsCCuGTE7nsHF0XHmxRXes3WwiWdaSv/9Pf3t3INNE8CJGArAjNmzLBV1XZbr/4T2m4dpGMkYHUCYg7WS4FRQHgyKl+bKZ7Va5mkePKBh/7dUvkVsmSWfgGIEL/On5dzqXQT6S/kiif8gqfLu8bJ3QeyT+t7jV7i6G7399IbFeeKRqvH91+fFSfhGH2/zqZ8evD+cWKC1bx6zK4sw5OXG8czPX6AOzSHRd50VIiHJkMUxxtwdPMqFD4YjdYiSlFzuooNfmoMjnlIAiRAAiRgeQKcs2V5prToUATUOBgbiu3C5wXzR+HrU6dw/Phx3evocZRWN8C97w/E3XT8/Z8FYqJ5KbYlzBLnQnxhMGYkR2L7rMVIPVWM4uO7EDcvXTxiaAqAN3zDxaDdZ1/rbjZqrtiwVcitUqGq4CCei83CnOXhGBb6uJihlYVxq1JRrlKjqvgIXpV240dh2ODhGDlypO4VMBg+I/8DYuYVpm/U5S0/vgOTY9eh2sMXU15eIOZ9jcOuUxVQq0qxfUOMEILTEKAfMtRcFSVH4y79uc4z/iQBEiABErAwAYOv1Ra2THMk0AkCX3zxBZYvX44jR450opQlsjbg0nc6O9vnTlZEl6HV9SevIG7sT5GWGImoqFCIgUaEzxG9TI1pzOIUZKgXYfq4IHkHkeH6Oy1/e+Php8NR+E4BVIvHwNuzP+5VsmxCmK9Yn0Gk8PgD2NI4hLkl/wCuhc6Cv+4WgpfsxIUkMUTZKg3Hf5dkoDxwelPeOeszsHT8YPEk4x+Qub4Wk8cNxTyl3AJkX1gmJKJMDTiRskKMQKaY1oZKHuv92L17N0pKSvA///M/1quElkmABHqcwM2bNyHn4L755pu4++67e7x+e62QYsteW8bF/CovL8fHH39sg6i9sShNi0Ud1By5Kg2apSqxoII7Bnh7AqmygBpHkpbh7P9bK9axUi6IpxNHIX1PfdN8KEOzY36ehODYCfhH+c8xc3gAXhNraL0mraiqRX5veBusJD8gZCbSxNpYqmoVGuREeFlnG8kzYBpSRd5tIi9uF3Y89W9rb0wS87w0i7dBdR3wHuDd+CSiMKTKxwYh5HYW/dTEsGkbFVnw8pkzZ1BUVGRBizRFAiRgDwSuX7+OEydO4Ntvv6XYMmgQ/aeywSUekgAJmCLgLtbi0s+i0t33RF+cQOxkf3wan4jh5fuxbl8hEjOiWuRrtDZgPN5YH4xxCX9HXWrz3DBPb2OrzXW7C4HU1r3mXLqjtvO6ewq/W2i13F2/QJbo1Xq/cc2vltZ4TgIkQAIkYDkCvSxnipZIwPUIjF+Vg6LsA3j0jj6449HlyC6qxKppcmEF02nssvexM+QSKprW7DKdz7pXq3EBv0bO7mib9GpZNzZaJwESIAH7I8CeLftrE3rkUAQ8MXL8TPEy02n34XgxrqNBSzNtdTnbAEQutrUPXXaeBUmABEjA4QiwZ8vhmowOm0MgNzcXcXFxePjhh3Hx4kVzijAPCZAACZAACViFAHu2rIKVRm1BQAqst956CwcOHBB7AJbhkUcewdy5c+Hra3ItBlu4yDpJgARIgARckADFlgs2ujOFrBdYBw8exFdffaUIrP/8z//EzJkzcc89cjsaJhIgARIgARKwLQGKLdvyZ+1dIKAXWIY9WC+//DIFVhdYsggJkAAJkID1CVBsWZ8xazCDgNwbUb7aSqYEFnuw2qJl/9c7am/7j4AekgAJmCLg4eEB+ZIbUjM1E6DYambBox4gIFcOb2vV8H79+iEwMNDIi1u3binzr7RiAVB9kvkuXbqE119/XXnpr/O34xCQ7SlfLdvbcSKgpy0JyPeqTJWVlS1v8dyFCPTu3Vv5G+jfv78LRd1xqBRbHTNiDgsSkCuH9+3bF4sXLzbL6o0bNyCHCEeMGAG5yrws+9BDDylPGd5///3o1YsP1JoFkplIwMoE9O/VgQMHWrkmmrd3AhRarVuIYqs1E16xMoFhw4bhl7/8pVm11NbWKmJLPmUoBdehQ4eUpw03bdoE+aH+zDPPYNasWZgwYQJuu+02s2wyEwmQgOUJ6N+r7u78b8XydGnR0QmwW8DRW9CF/P/BD36ABQsW4IMPPlD23VqzZo2ymfHjjz8OPz8/xMTE4NixY5AboTLZN4GGhgbIPdSYSIAEnI/AtWvXnC+obkZEsdVNgCxuGwJSeM2fP99IeJWWloLCyzbt0dlapVB+/vnnO1uM+UmABOycQH19PQYNGsSN5lu0E8VWCyA8dTwC7QkvOWTJFeTtr03lN1857MREAiTgXAQ0Gg3k/D2+v43blYPrxjx45uAE9MJL9npdvnwZ2dnZGDJkiINHRfdJgARIgAQcmQDFliO3Hn1vl4AUXk8//XS7eXiTBEiABEiABKxNgMOI1iZM+yRAAiRAAiRAAi5NgGLLpZufwZMACZAACZAACVibAMWWtQnTPgmQAAmQAAmQgEsToNhy6eZn8CRAAiRAAiRAAtYmwAny1iZM+60InD9/HikpKa2um7rAhS9NUeE1EiABEiABRyJAseVIreUEvj7wwAPYv38/4uPjjaKRK4rLtZdM7akVEBDA5RuMaDn+ifw74PZKjt+OjIAEWhLo06cPwsLC+JndAgzFVgsgPLUuAbn+lXwxuTYB/g24dvszeuclIPfGPH36tPMG2MXIOGeri+BYjARIgARIgARIgATMIUCxZQ4l5iEBEiABEiABEiCBLhKg2OoiOBazLAE5Ef6jjz6yrFFas1sC33zzDc6cOWO3/tExEiCBrhPIzMzEzZs3u27ACUtSbDlhozpiSMeOHcOTTz7piK7T5y4Q2LJlC1asWNGFkixCAiRgzwTUajWmTJmCvLw8e3azx32j2Opx5KzQFIFbt25Bq9WausVrTkiA7e2EjcqQSEAQkO9tmfh5rmBo+kGx1YSCByRAAiRAAiRAAiRgeQIUW5ZnSoskQAIkQAIkQAIk0ESAYqsJBQ9IgARIgARIgARIwPIEKLYsz5QWSYAESIAESIAESKCJAMVWEwoekAAJkAAJkAAJkIDlCVBsWZ4pLZIACZAACZAACZBAEwGKrSYUPCABAwKqchw/cgRHj+eiusHgemcOVVUoLiiFqqvlO1MX85IACZAACdgtAYotu20a13Js9OjRWLZsmZ0EXYGksf6YMH06Jk94DzVmb9fegFPbohG1OVeJQ3V2K4JCA5GntpOw7MiNJ554As8995wdeURXSIAELEHAy8sLy5cvR2BgoCXMOY0Ns/8bcZqIGYhdEhg6dCgSExPtxDc1zhcC63NqEDfGuxM+aZD3p30o+VWcUsY7dCnKymIwtDMmOlGbI2eNiIhwZPfpOwmQQBsE3NzcsHHjxjbuuu5l9my5btszclME1AVY6BaI7eLeijAfLEwtBlTF2LwwAvJDRL6SUnOhjAyKvAkRoxAVHaVcH/HkNMQIkVYYG4roXQVQl/wDLzyxFoUqWVEVDiZFN9qIQELSQkQsTIVyy5QfvEYCJEACJOA0BNiz5TRNyUAsQsAzGL89mYIT4+Zi9NYM/CbCHZvH3odY33hkl+zGHefSEDo9DNXeJXhtigZnsgqRLipO3pmMvl7DUfpVNtIe34m4qSPQcOkTZBXmoU7cP7XhWcxaDaScLMKY2iw8MzkGheEPWcRlGiEBEiABErBvAuzZsu/2cRnvLl68iDVr1thBvO4YHvZDyNkG4x+biOE1nyJWDikm/Qphvj4YMfE5HFgAbIp/D9WN3i5Jex+LX1yMX85+HPf5Ar4jxiDEr3nssDfKkb4iCwsO7Eb02JEYOWkR3t4aCVTaQbg2ciE7Oxv79++3Ue2slgRIwFoE5J6IK1euxNWrV61VhUPapdhyyGZzPqc///xzrFu3zj4C02hQIzyp11xHQ71uoG/FBH94+QyEj5cvZskxxkBveIhfMt8I/4Hip0wNuKH81ig/9T+01y7ipDi5+24f/SUMfWySGG+sbzp3tYN3330Xe/fudbWwGS8JOD2Buro65YvzuXPnnD7WzgRIsdUZWszrsgQOlGmUXezlt7bKomxkxk/A7XoamhZrO/SWMswg9QuAnA5+/ryUZrp0IfcoENxbf8rfJEACJEACTkyAYsuJG5ehdZ+Ad/AULBFmZiXsQHG1GtWlRzE/aAIm7zwjO7JMpqzPP0GpyKtPGgzGjORIbJ+1GKmnilF8fBfi5qWL8UZ9Dv4mARIgARJwZgKcIO/MrcvYukxADvj19hBvD/cArC3JQGXgdATti9HZm7MeRUI8uXuU4j6jGrwxfWk8EBWDwBP1qHxbztvyg5cwE7I4BRnqRZg+LkhcC0dkuFFBnpAACZAACTgxAYotJ25chtZFAp5jkCaGC/XJM2AaUrUabKsW87fcb4e3t2fjrQD8xSCfvDg8ci00mv8WR55wF+8urfZFcazGkaRlOPv/1orzVJlNPJ04Cul76tvqHFPy8AcJkAAJkIBzEKDYco52ZBRWJ+AO7wEDzKrF3V0vxvTZPdEXJxA72R+fxidiePl+rNtXiMSMKJhnUW+Hv0mABEiABByRAOdsOWKr0WezCahU9rFs6PhVOSjKPoBH7+iDOx5djuyiSqyaNtzsOJiRBEiABEjAcQmwZ8tx246et0GgvLwcBw8exFtvvYXc3FyxZU6ZWHbh7jZy99RlT4wcP1O8eqo+1kMCJEACJGAvBNizZS8t4eJ+9OrVS9nKpqsYpMD6wx/+gEcffRT+/v54/fXXIfffy8nJsQOh1dWonLdcd9vbeckwMhJwbALyvS2T3NqMqZkAe7aaWfDIhgQmTpyIQ4cOdcoDwx6szz77DPfeey9mzZqFrVu34qGHHuqULWbuWQIxMTFcYbpnkbM2EugRAp6enjh8+DBCQ0N7pD5HqYRiy1Faysn99PLywpQpUzqMkgKrQ0QOkUH2PjKRAAk4J4EZM2Y4Z2DdiIpiqxvwWLTzBBoaGvDtt992quCXX36J06dPK3OwZA+Wt7c3fvKTnyAhIUHpwdJ3V58/f75TdpmZBEjAcgTkNi1MJEACpglQbJnmwqtWIiA3m/7d737XLevyCcN9+/Ypr24ZYmESIAGLE5CbyjORAAkYE6DYMubBMysTuHbtGsLDw7Fjxw6zalKr1fjhD3+I6OhoyM2qi4qKlLlZTzzxBOTr/vvvN8sOM9kXgbfffhtySPg3v/mNfTlGb7pMQPZshYSE4K677uqyDRZ0fAI3b96EnIP75ptv8uEkg+ak2DKAwcOeIdC3b18EBASYVVltba2Sb8mSJQgLC4PcSf7AgQPKa8uWLRg5ciSeffZZZWL8gw8+aJZNZrI9gaqqKkVsmft3YHuP6UFHBPTv1Y7y8b5zE7h+/TpOnDihTBex/ZI79sOaSz/YT1vQEzMI3HfffcpcrX/96184e/Ysfv7znyM9PV3p/QoKCsLq1avxxRdfmGGJWUiABEiABEigZwhQbPUMZ9ZiBQLmCK/CwkIr1EyTJEACJEACJGA+AYot81kxpx0TaE948SlFO244ukYCJEACLkCAYssFGtnVQjQUXnJuEOcNuNpfAOMlARIgAfsiQLFlX+1BbyxMYODAgRa2SHMkQAIkQAIk0DkCFFud48XcJEACJEACJEACJNApAhRbncLFzCRAAiRAAiRAAiTQOQIUW53jxdwkQAIWICD3wpQvJhIgAeci4OHhAfmSG1IzNRPgoqbNLHhEAiTQQwRWrlyJ+vr6HqqN1ZAACfQUgd69e6OyshL9+/fvqSodoh6KLYdoJjpJAs5FQP/t17miYjQkQAKSAIVW678DDiO2ZsIrJEACJEACJEACJGAxAhRbFkNJQyRAAuYSaGhogNxDjYkESMD5CFy7ds35gupmRBRb3QTI4iRAAp0nsGbNGjz//POdL8gSJEACdk1AzsUcNGgQioqK7NrPnnaOYqunibM+EiAByG++tbW1JEECJOBkBDQaDW7cuMH3d4t2pdhqAYSnJEACJEACJEACJGBJAnwa0ZI0aYsESIAEXJzA+++/j+LiYrMoFBYWws3Nzay8zEQCjkyAYsuRW4++kwAJkICdEOjTpw9CQkKwffv2Vh5VV1dD3je1kO2cOXNa5ecFEnA2AhRbztaijIcESIAEbEDA3d0d+fn5Jmt++OGHMXv2bCxfvtzkfV4kAWcnwDlbzt7CjI8ESIAESIAESMCmBCi2bIqflZMACZAACZAACTg7AYotZ29hxkcCJEACJEACJGBTApyzZVP8rJwEXJPAAw88gNtuu801g3fBqENDQxEYGOiCkbteyPJBiLCwMAwZMsT1gm8nYoqtduDwFgmQgHUIzJ8/3zqGadUuCezYscMu/aJTlicgH5Q4ffq05Q07uEUOIzp4A9J9EiABEiABEiAB+yZAsWXf7UPvSIAESIAESIAEHJwAxZaDNyDdJwFHJPDNN9/gzJkzjug6fe4CgdzcXFRVVXWhJIs4IoHMzEzcvHnTEV23ms8UW1ZDS8MkQAJtEdiyZQtWrFjR1m1edzICL730Evbs2eNkUTEcUwTUajWmTJmCvLw8U7dd9hrFlss2PQMnAdsRuHXrFrRare0cYM09SoDt3aO4bVqZbGuZ+P42bgY+jWjMg2ckQAI9QMDf358bEPcAZ1ZBAiRgHwQotuyjHegFCbgUgZdfftml4mWwJEACrk2Aw4iu3f6MngRIgARIgARIwMoEKLasDJjmScCeCKgqSlFaoerApQZUlBajQtXQQb7u3lbhVPpRVIhqOvKrQVWBgoJcFJRWoDteVYm4cgsKUF6tbnK+Kvcojpd2xKQpOw9IgARIoNMEKLY6jYwFSMBxCZzZEojAjR09JaTG3sAgbDljXQFSnDoX46Jy4CkmM5zdIfzaYXopiIrjm+HhMxShoWEIDRwKj4gNKG3WSmY2RjVSl46Cr4grTGwd4z/QC0lHypWy7nUnMCFwGUq7o+LM9ILZSIAEXJMAxZZrtjujdlECoUvLUJYQ1mH0nsHAnV63d5ivyxnUBYibm46dRYsxQBrpH47g/l4mzKnwj1WxwJI01IinFzUXMhGetQKpOZ1bs6k8PQ5zNwEZZXXiKSkNMuKB1dP/CmllwPil2Bm+Hb/ZW2yifl4iARIgge4ToNjqPkNaIAE7I6BC6sJRcBs1CqPEKyIqClERo7Bwlxg++2AT1hw+p/NXVYzNCyOUpwLd3NyQlJrbNETX2xd4Z9eriBLX5b2opamoaIyyKvcgohuvu41aiPTiauWOuvQgoqKTsGvzwkabo5CUblrAFB/agHQkYupIT6WsR28fFB59E0ujdPWNEnYKFLMNUFUCwXcOhbfI6e4XiNHi9/nvapRyrX+ocHTb0qaYopbuQvl1FT58bTvCt/4N04Z7oFoMIU6Mr0RZWYxO6AnLU+PikT7vj+zdag2UV0iABCxAgGLLAhBpggTsi4Anxv5qG7K3vYE9f3sDT9ekIz2rEA8F3YXayx/gRKVGuFuFzWODEHtuHLJLypCfkYzVc8PwSnqpEkofHyBrUxqeys5HjriXvmkuNqaXo6E8Hb5hs3BtfRrKLpTgwOzvEBX0UxwXwqih9hLS963GvKMBOFmUj5REX6yOikNuqyE/FbLW7kPw+sfh1wSuH5C+DrXTM1FSlI3H81Yj9KfbUC3k0Ix1S1C4IgzRCUlYGuGPTZiDX00NaCppeJC7bS4mx2xCckY+SvLTgE3z4J+UrWSp/HwLRrl5YOBAH3j5LEER+kH/OLbfo9MRjO14L18nHA1t8rj7BP5/e+cCFOWRruGXOKhghoCJmGASQGYNogVugS4kmmAp0egWmBONxksSieyK53irxPVSlq5Yih6ToybuqtFVKoKuwc0GvJZi5BhdzAZywAqXRNhg4m3RiHGUURj1dP8wwwzXQQec+eftqhn+S/fX3/f0MLx0998dHx+PoUOHPrghWnB4Ap6ennjvvfeg0+kc3teOdJBiqyNpsy4S6BACGgSFD8GQIZHoU5OP2dliFC69GNMje4jaRZeVSIaSw5hdBKxK+j0ifL0Q+NIbSE8Q2mThflwT92+XAgkZRzB1SCjCRyaIYTbgcPEVFB38i7ibgCXxQ+Hl0R0jEhcK6ZONHUdrRZrog8LxlPmIDA7FpHnvIxrXUdNoLpQeFaLuN196TtgyJdFvFrIR66cPQ1DwEKzctVGovd34Tq/HmbqVqH27dgGECATy8cN5MZ/MaBC9VJXml+FOJU5+lImQ9bmYNTIUQaGx2JiTjrTfGHAkGyjachKLcspxvaIA6yfuxCsBy1E7a0uY9AnCePGjkS4U15genEBiYiLCw8Mf3BAtODwB2RO+Zs0aeHt7O7yvHemg6R+7jqyTdZEACXQAATms5xWRiOhVx7F2bLBVjcbq2snvC14MgNWmObFadBI5q8UrqJccuJPJiNvi3VcZ8RM9UKIHKMJ3i7xhTrEXhETrI0994dnat4rxOr4TOX/jbi6OGlFhyO8HonZQEfAIHCCEWiLOFX+BcUuzsTH3KqaHy9ldszD0d56Im78Hl5ZU4MmIeu9X5/6kaLG4fs+aDftFjhVisBLXo4GCkX/BpEh/5V7C/PWYvfPvuCgw+Cth+uAZkeeTk//CfIoCMz8ekAAJ2IcAe7bsw5FWSMCxCFSewjTdONEJlY4D84c061t6eY2yrYbcWqNCDN9lLXzRLHikyGqYaqrlzK1lqBD579WI170qFOdkYcno3g2zNn+u8YLs07pm0eUldVfRt+fNZYzni0V/WTR8bsu+p2gM6KNMoxfHHugTFSuGHPXo0icexcXFda9yJIY/ppTPOXPRbKcyLw2L/vsY5MCpdepsfYoKnMkGRg5qQxwNLPCUBEiABJoj8EhzN3idBEjAWQmcRdLgKIhZUcj4r4GoEGtLlZSUoOxs/XwkbUgM5ojwxi3aihIxYbyy7Cim9X0Rw7c1vfyCiUSfaDnYthQr005BX6PH6czl6Bs1HPsvNxZmpjKNf2rhGw3s/ueP9bfEBHlsicOHX56FobIEf14eL7q6XkVo1MvKMGXUkjSc1RtwueQQlsdnAgv7wVvbA8HBwXUvfzHNXYt+b4YgO3E1jpZVQn85D2siJiO5VIOY/0wQ876isP3UBRj0ZdiyOlHYH4kgU+ed4QpyhDce7q11y9W7zCPbCWzdupUbE9uOy6lzyn/cFi9ejF9++cWp47C38/xmsTdR2iOBh01AfwV5Yk6U6CtCXFhAvTfRG/GPV+tONUFYWXoQFbpX0HenEB4yTVyF4vWxYtK4HrLfx3L+kpwwLy9qQ6ejIL0CYeOixET12jRn43EsEvPBxGoOIsmMrSUtBr4ajaK/n4Z+VrjylGFtiWhsFsOas+VJyBzkZM9AD40GGwrScSNsHALqKgyZsw3nk4Y1WcmQd49gW1kMhuu615lchoLVsQj2GYqsVTcxPKoXhIwTKQHHz78LOYtNJn3RSaUn7f0+JvVVe90V348cOYL+/fvjqaeeslv4mzdvxrVr1zBgwAC72aQhxyRQVVWFFStWYMyYMYiIaH2ZGceMwv5euQkVes/+ZtvH4s2bN/Hoo4/i66+/trkR582bpwwz7Nu3r32cotU2EWhre9xPm7fJIZfPLJZWqBQTlzRdodWaZkzZAEVOTtffEsV80JZiZsuVX6Jf9xexTAxjjvW3+J/PqBd2hajz0ZqfFKwtU+unUfjpY0OFBjGxXnjXKK/RoIdwu4F9A/ZM8sTS0BwUzo80u+iKBwaDAfJpMjnJedCgQZg8eTJee+21BxZeAwcOxPjx45Wn1FyRqyvFzO/splubw4hNc+FVEnARAhohPIRgskHAWAHReMBHlmuDPrMs/12FL+bN1IlhzM+tetCg0Qq7DYWWLFnrpy1CS+b20Ao7TTin8Whs31D2GcbtjMZfZri20JLc7t69K38o8/i++uorvPvuu+jVqxciIyOxYcMGXLxYPx9Oycg3EiABmwhQbNmEiZlIgATsSUDO4dlT+iy2hV7BBcvxSntWYqOtivJqpOd+ikiOIDYiVl1dTeHViAovkEDbCVBstZ0ZS5AACdiDwCMemDp/OoLus3fMHi5IG/7DpmJsuGn2lr2sqs8OhZf62pQRdRwBi8kSHVcpayKBthI4cOCA8kRdW8sxv2MSKCoqwvnz55GamuqYDrqoV7duiQltNiQpvGSSQ415eXmYOXMmgoKClNcbb7wBjXiwwTL9/PPPSr6m2vvXv/61sq2UZX4ek4DaCFj/RqgtOsbj9ARMc0j+9Kc/oXPnhmsjOX14LhuAfDLNaDRi4cKFLsvAEQM3/b61xTfZjjKVlZUpL/kAU7du3axMSHGWnZ2NEydOWF2XywO89NJL2Lt3r9V1npCA2ghQbKmtRVUWzyOP1I5079+/3+YnUFWGQJXhtPWpVFVCcMCgTE+S2eKa7L2S4kw+vTh27FjEiQ3PX331VRw+fNjm31XT58CW+piHBJyZAMWWM7cefScBJyUgRbRcXoDJuQg0FFhyOYdhw4bB3d0dUqgxkYDpH2T+flt/Fii2rHnwjARIoAMIyI2JucJ0B4C2QxVSSN25c8fcg2UpsOxgniZURsDDwwNyXcuwsDCVRfZg4VBsPRg/liYBErgPAgEBAfdRikU6ikCnTp2UJR9MQ4QUWB1FXh31jB49Wh2B2DEKii07wqQpEiABEnBmAl27dlV6JOQTghRYztyS9N3RCFBstdoiRlwuK0WVVy94Vp3HdfdeCPJzkNUPjZUoKzXAP9ivwdYm9UFVni3BT1eq0e2pQJv9Nlw+izM/XkFn72cRHFS7/pCx8gJKr7qjp1cV/n3dEzpxnR+ees48IgE1EJA9Wvn5+WoIhTGQgEMR4KKmrTaHAbt0fTFq1zH87e2+0O0obLVER2XQF+yArm8McsVeco2THpmLhqJ7QF+ERYRB18sLkzadapytwZWyzCR4+gaIMhHoq/NFv7l7xLbEQMGOGPSN3YWv/jZLXH+9mTobGOMpCTRDICUlBYsXL27mLi+TAAk4KwE5v2/w4ME4d+6cs4bQLn5TbNmAtXMIoJNrPPkBIR7uNpTooCzuct0pHTybWoG7Mh8Lk7Ox6vh5Ze5Fcfoc7ExMRl5LW6NUHkVs3FIkpBYoZSpy1qNo3TjsKTPAvbNOQkA3bW9R5wD0aKrODgqb1Tg/gcLCQvagOH8zMgISaERALox78uRJXLp0qdE9V75AsVXX+oaSNPRz+x1ON+ol8kDAC0DvX/XFgOeE3njcG4ayPWJNmUXYlDRJeXzdzW0S9pzKw/a5/WrPh87Fl2drVY3xch5WTxpal88Ni9JOKRvvlqTNRb9Jm3DZ/Om7jA/j+mHRobPiigGnti8ylxk6dxPqzJlz1x9kYvZbcXV547D91AXllvH6v1Ekjvo+KxSiSL2e9hHvpahR1h/U4+imuWb7cXO3K/ZLDmxDUch6fDApFIbKSnQNm4rzpeUY4+eBwIHhongXBIUHCjuB8OUYosTKRAIkQAIkQAKtEqDYMiFy10IX+wQ6NxIRGgz/oAJJL/kjYm4FUscHwXjzCjIzk5GY9xvkFudgVexOjIuKwOdPJqMgJwMTs9dh+l+l1DmLJb4RWJAfhePF5cjNWIXkyVGYllYCXeQLKNqZiMOi10gmQ8k+zM4swouhvXB6+zRExWdgY1aBEDvHEXU4EQETtivDeUrmBm/ZF55HbnkpMpYB8VExOCoUnMZ/BLbFAnEBQ7EoaRFio5YCc5IRJqab5W2ajOGJ67D+YAFKCzKAdfEIWH4U1fobQNFsxPZzg2f37vDy9MKG/zPAR/RiaUNmouLEFPjppqDiagIcZNZaAxI8JQESIAESIAHHI0CxVdcmHkGxyMhYieAmhsc02h7QChFm+llbJATHU2YhPDgSE95JEJcS8D/zYxEaGYv5G6NRdOg0LuZlIBkhyMpeiSHB/giPnY/cVSHYufIw9EHDsF4MT67cU6CYy/30fSB6G17wM+Afn+xUhNH45wPhIcTaOx8IFZX5CQob9brJotHIyZyPcP8gxC75EHNEf9bRPNG7pf8BpzPlfT907dJVHgD5xbhoqMTJjzIRsj4Xs0aGIig0Fhtz0pH6Yg+4aXsq2X41MwsV1ytwfNscJI/rizQpCD180MNHQpA/m4CklOQbCZAACZAACZBAQwKN+nEaZuB5cwR84VlHzzegv5jMBfhaZq24DY334+KK6OGyoPxU2MtKLg18EJecgNlxmbgwqwd2LC3CwqwR0Bq+x5fZIkt2HLqvU7LWvU1E07PFvMx+SA9Co4H3C37EmxeTsU5Ir9KatQgS9S+ZMRpxXhHYmvMfeFZYjOsn32uTX+RYTBKHpzf9W7wvwx+nD4N8BrHH1HlYGL8OB06dxaSg4NrMfCcBEiCBJgiYVg4fM2YM5BISlun27duQTzo23KD6ypUrGDJkiGVWHpOAKglYyABVxtchQSnToOSoYYNkvPazuBKCbhaUr5TLx6oDIcv4D40X/VJR+OPyK9iCiSh4XsyvEhPwQ4VwuzAzF8emhyv5UFmG//3mGno32aF0HTXmeitxJltMX5/mjZs/XxdXfdDdVLeY2D5M2D3648+K2Mo5cxEYVrusQ2VeGtZkPY5xVmrRbBT+j3vVn/CIBEiABJogIFcO/+yzz3D16tVGd5cvX45BgwZhxIgRje6Fh4v5oEwkoHJ9TZsTAAALsElEQVQCpj/FKg+z9fCMF07hzzvKEDdrEvybFDWt22iY49GQaCGhZiNqyXaUJ02A5w/78UZiNkKWLa6d86SNwPw5wCvJW8S1LIQq9fbA8+NDsCAxCZnPb0RMYA3+Ol+H+C2xKK7JEPKpYcpG0ppDSJn3Ar776x/FsCVwcKgOzxYPFUdL8VHmGMyNCcT3+z/CbCEIt0WKZSDeDEF24mocjdmAQV7/wpqIyUhOyEBS/CwhDYcj8cMXkJIwCP/6bI1iL71v41obesFzEiABEpAbUTeVNm3apIitd955p6nbvEYCqidAsVXXxIYr/8TsBZsxaIYQWzY1e4PeHtFrVJ/EPdlL5BGKTcUZ4pHAOASISegyRc9JxadLhtWNLGrwwuSNYoJ6Iha9/rxyX74NWXQE2yonIS6sV921WKQWpCC4ydaKRs+8V9Ddszbr+qxyjPQTGf0WIWdbJaLiwoTkqk0LU3MxRUxK0+iE/bIYDNd1r70RvQwFq2PldCwcydmGmKjh6D679tayjFKMtZf6rPODP0iABEiABEjAlQg0+efblQCYYtWGzhJrS80ynbb4Uxs6XeSdbs6jlLVY6zR0egbMt4NjkXavBpsqxez2rlpoPayRa8OtbSlGNX6YuvYYJiTpcUuMN2p9tJbTvizqNZU14gNhX6P1Qb15DSKnrsW9KStRqb+l3JOT/M32Py7EhA+EfWHZR1vflecXORWFNROUMl2t7Jmr5QEJPDABueeefDG5BgG2t2u0s4xSblwuX3JYmamegOnPb/0VHrUDAY0QTG0fivPQamHbx7UF+xoP+DTz9GCz9lso0w5waNIFCcjV46urq10wctcMed++fRTXLtL0ncUC4BUVFfD29naRiG0Lk2LLNk7MRQIkYEcCpv9+7WiSphyYgFb848jkOgQotBq3NdfZasyEV0iABEiABEiABEjAbgQotlpAWVNTA7nPExMJkIB9CRiNRv5u2RepQ1urqqrC3bt3HdpHOmc/AjduiN1ImKwIUGxZ4QCkwDp48CDi4+PRs2dPzJpl26T5BmZ4SgIk0AKBFStW4K233mohB2+picDo0aOxefNmNYXEWJohIOdiPvHEEyguLm4mh2te5pwt0e5SYGVlZSE9PR2ff/45bt68iZdffhnr169Hc+vGuObHhVGTgH0IyP985e8Zk2sQYHu7RjvLKOXfU7ljAH+/rdvcZcVWUwJLrm4sBVZsbCwee+wxa1I8IwESIAESIAESIIH7IOBSYosC6z4+ISxCAiRAAiRAAiTwQARUL7bkRNxLly4pc7DkEGFlZSXk/AHLHizZ3Smv6/Vi4dFmknxUXc7hskxyDzA58bOlJB95bthLdvHiRdy5c6elYsqYt+VmrqY4Wiwkbvr5+cG0IazMa4qtpXIdGZtk3FrsLfnKeyRAAiRAAiTgbARUL7b27t2LsrIy5OXlmdtm3LhxmDJlivn89ddfx4EDB8znzR2Ul5fD3792Mx/5ZI08bu2pi4CAAPzwww9mk19//bWyR5j5QjMHb7/9NrZv326+u3btWvzhD38wnzd3kJKSYjXx2BFje/rpp5tzn9dJgARIgARIQHUEVC+2fvvb3+Lo0aMIDAzEF198AdlDlJmZqWwlIHu4unXrhl27duHy5cstNm6XLl1gKRJk71FpaWmrYqthr9bAgQMhRZv0o6X05JNPWt2eM2cOXnvtNbFN0D2r65Ynbm5uZjFouu5osa1atQo//fSTyT3+JAESIAESIAHVE1C92JJDZLIHSgos+YTEoUOH8Omnn2LatGmK4Bk1ahRkT5cUZVJ4tSXJYcWGQ4u2lDf1jtmS15RHxtG7d2/Tqc0/vby8IF9tTe0Vm1xZWA6jMpEACZAACZCAqxBwqXW2ZO9UXFwc0tLSlJ4s2esj50UlJCSgR48eGDt2LHbv3s1HVl3l0884SYAESIAESKADCLiU2LLkaRJeqampLQqv1ibAW9rkMQmQgG0EnnvuOfTv39+2zMzl9ATCwsKg0+mcPg4G0DoB+bc1IiLivkZ9WrfuvDlUP4xoS9OYhJfs9TINNcoFTmWP14QJE/Dxxx/bYoZ5SIAEbCQgh/GZXIfA1q1bXSdYF49Uo9FAPgjGZE2AYsuaBxoKLy5T0AAQT0mABEiABEiABNpEgGKrBVxSeDGRAAmQAAmQAAmQwIMQcNk5Ww8CjWVJgAQejIBc/qOwsPDBjLC00xCQ6xy2tryO0wRDR1slIPca5qiQNSaKLWsePCMBEugAAhs2bMCCBQs6oCZW4QgEZsyYgU8++cQRXKEP7UzAYDAgJiYG+fn57VyTc5mn2HKu9qK3JKAKAnIHhpYW6FVFkAzCTIDtbUah+gPZ1jLx99u6qSm2rHnwjARIgARIgARIgATsSoBiy644aYwESIAESIAESIAErAlQbFnz4BkJkAAJkAAJkAAJ2JUAxZZdcdIYCZAACZAACZAACVgToNiy5sEzEiABEiABEiABErArAYotu+KkMRIgARIgARIgARKwJkCxZc2DZyRAAiRAAiRAAiRgVwJOuV3PgQMHUFJSYhOIoqIiuLm52ZSXmTqGwLlz55CammpTZbdu3bIpHzM5F4FRo0ZhwIABzuU0vb1vAvHx8Rg0aNB9l2dB5yHg6emJ9957Dzqdznmc7gBP3cTCY/c6oB67VGE0GhEeHo6rV6+2yd7EiROxevXqNpVh5vYhsHXrViQlJbVpwTu5R+WxY8fwzDPPtI9TtEoCJEACJEAC7UjAqcRWO3KgaRIgARIgARIgARJoFwKcs9UuWGmUBEiABEiABEiABGoJqEZsyeEpbnzpvB/rixcvYsWKFc4bAD1vE4Hjx49j9+7dbSrDzM5LgN/Pztt2bfVczkxavHgxfvnll7YWVXV+1YitzZs3IysrS9WNpebgvvnmGyQnJ6s5RMZmQWDv3r3YsWOHxRUeqpkAv5/V3LrWsVVVVSn/OJ85c8b6houfqUZsuXg7MnwSIAESIAESIAEHJUCx5aANQ7dIgARIgARIgATUQYBiSx3tyChIgARIgARIgAQclADFloM2DN0iARIgARIgARJQBwGKLXW0I6MgARIgARIgARJwUAIUWw7aMHSLBEiABEiABEhAHQQottTRjoyCBEiABEiABEjAQQmoRmw98sgj3HDaQT9ktrjF9rOFknrysL3V05a2RML2toWSOvLItpbJzc1NHQHZKQrV7I146tQpBAYGomfPnnZCQzMdSUAuhHfy5EnExMR0ZLWs6yERKC8vV1aYDgsLe0gesNqOJMDv546k/fDr2r9/P0aMGAGNRvPwnXEQD1QjthyEJ90gARIgARIgARIgASsCqhlGtIqKJyRAAiRAAiRAAiTgIAQothykIegGCZAACZAACZCAOgmoRmwlJiYiMzNTna3kAlF9++23GDlypAtEyhAlgZSUFCxevJgwXIQAv59dpKFFmHfu3MHgwYNx7tw51wnahkhVI7Zyc3Px/fff2xAyszgigbNnz+LEiROO6Bp9agcChYWFyM/PbwfLNOmIBPj97Iit0j4+3bp1S3nY6dKlS+1TgZNaVY3YclL+dJsESIAESIAESEDlBCi2VN7ADI8ESIAESIAESODhEqDYerj8WTsJkAAJkAAJkIDKCVBsqbyBGR4JkAAJkAAJkMDDJUCx9XD5s3YSIAESIAESIAGVE6DYUnkDMzwSIAESIAESIIGHS4Bi6+HyZ+0kQAIkQAIkQAIqJ6AaseXp6Qn5YnJOAmw/52y3+/Wa7X2/5JyzHNvbOdvtfrx2d3eHfHl4eNxPcdWWUc1G1Hq9XhFbnTp1Um1jqT2wa9euwdvbW+1hMj5BoKamBtXV1ejWrRt5uAABfj+7QCNbhMjvcgsYdYeqEVuNQ+MVEiABEiABEiABEnj4BFQzjPjwUdIDEiABEiABEiABEmhMQDViq6qqCnfv3m0cIa84DYEbN244ja909MEIGI1GyD3UmFyDAL+fXaOdTVHyu9xEov7n/wN6w65XC/jT0QAAAABJRU5ErkJggg==;" parent="1" vertex="1">
                    <mxGeometry width="603" height="586" as="geometry"/>
                </mxCell>
                <mxCell id="3" value="&lt;font&gt;«Component»&lt;br&gt;&lt;b&gt;Xboard-Protokoll&lt;/b&gt;&lt;/font&gt;" style="html=1;dropTarget=0;verticalAlign=top;fillColor=#fff2cc;fontFamily=Verdana;" parent="1" vertex="1">
                    <mxGeometry x="100" y="10" width="120" height="70" as="geometry"/>
                </mxCell>
                <mxCell id="4" value="" style="shape=component;jettyWidth=8;jettyHeight=4;fontFamily=Verdana;" parent="3" vertex="1">
                    <mxGeometry x="1" width="20" height="20" relative="1" as="geometry">
                        <mxPoint x="-20" as="offset"/>
                    </mxGeometry>
                </mxCell>
                <mxCell id="5" value="&lt;font&gt;«Component»&lt;br&gt;&lt;b&gt;Spielregeln&lt;/b&gt;&lt;/font&gt;" style="html=1;dropTarget=0;verticalAlign=top;fillColor=#fff2cc;fontFamily=Verdana;" parent="1" vertex="1">
                    <mxGeometry x="230" y="10" width="120" height="70" as="geometry"/>
                </mxCell>
                <mxCell id="6" value="" style="shape=component;jettyWidth=8;jettyHeight=4;fontFamily=Verdana;" parent="5" vertex="1">
                    <mxGeometry x="1" width="20" height="20" relative="1" as="geometry">
                        <mxPoint x="-20" as="offset"/>
                    </mxGeometry>
                </mxCell>
                <mxCell id="7" value="&lt;font&gt;«Component»&lt;br&gt;&lt;b&gt;Engine&lt;/b&gt;&lt;/font&gt;" style="html=1;dropTarget=0;verticalAlign=top;fillColor=#fff2cc;fontFamily=Verdana;" parent="1" vertex="1">
                    <mxGeometry x="354" y="10" width="116" height="70" as="geometry"/>
                </mxCell>
                <mxCell id="8" value="" style="shape=component;jettyWidth=8;jettyHeight=4;fontFamily=Verdana;" parent="7" vertex="1">
                    <mxGeometry x="1" width="20" height="20" relative="1" as="geometry">
                        <mxPoint x="-20" as="offset"/>
                    </mxGeometry>
                </mxCell>
                <mxCell id="9" value="&lt;font&gt;«Component»&lt;br&gt;&lt;b&gt;Eröffnung&lt;/b&gt;&lt;/font&gt;" style="html=1;dropTarget=0;verticalAlign=top;fillColor=#fff2cc;fontFamily=Verdana;" parent="1" vertex="1">
                    <mxGeometry x="474" y="10" width="120" height="70" as="geometry"/>
                </mxCell>
                <mxCell id="10" value="" style="shape=component;jettyWidth=8;jettyHeight=4;fontFamily=Verdana;" parent="9" vertex="1">
                    <mxGeometry x="1" width="20" height="20" relative="1" as="geometry">
                        <mxPoint x="-20" as="offset"/>
                    </mxGeometry>
                </mxCell>
                <mxCell id="11" value="&lt;font&gt;&lt;span class=&quot;char&quot;&gt;&lt;span class=&quot;vchar&quot; id=&quot;char-node&quot;&gt;«System&lt;/span&gt;&lt;/span&gt;&lt;span class=&quot;char&quot;&gt;&lt;span class=&quot;vchar&quot; id=&quot;char-node&quot;&gt;»&lt;br&gt;&lt;div&gt;&lt;b&gt;Xboard&lt;br&gt;Client&lt;/b&gt;&lt;/div&gt;&lt;/span&gt;&lt;/span&gt;&lt;/font&gt;" style="shape=cube;whiteSpace=wrap;html=1;boundedLbl=1;backgroundOutline=1;darkOpacity=0.05;darkOpacity2=0.1;size=10;align=center;verticalAlign=top;fillColor=#fff2cc;fontFamily=Verdana;" parent="1" vertex="1">
                    <mxGeometry width="90" height="110" as="geometry"/>
                </mxCell>
                <mxCell id="12" value="Zugermittlung&lt;br&gt;Functions@Runtime" style="rounded=0;whiteSpace=wrap;html=1;" vertex="1" parent="1">
                    <mxGeometry x="477" y="525" width="126" height="60" as="geometry"/>
                </mxCell>
            </root>
        </mxGraphModel>
    </diagram>
</mxfile>